<?xml version="1.0" encoding="UTF-8" standalone="no"?><svg xmlns="http://www.w3.org/2000/svg" xmlns:xlink="http://www.w3.org/1999/xlink" contentScriptType="application/ecmascript" contentStyleType="text/css" height="733px" preserveAspectRatio="none" style="width:820px;height:733px;" version="1.1" viewBox="0 0 820 733" width="820px" zoomAndPan="magnify"><defs><filter height="300%" id="fh1b0dbu1pux0" width="300%" x="-1" y="-1"><feGaussianBlur result="blurOut" stdDeviation="2.0"/><feColorMatrix in="blurOut" result="blurOut2" type="matrix" values="0 0 0 0 0 0 0 0 0 0 0 0 0 0 0 0 0 0 .4 0"/><feOffset dx="4.0" dy="4.0" in="blurOut2" result="blurOut3"/><feBlend in="SourceGraphic" in2="blurOut3" mode="normal"/></filter></defs><g><!--class BusinessModel--><rect fill="#FEFECE" filter="url(#fh1b0dbu1pux0)" height="124.8281" id="BusinessModel" style="stroke: #A80036; stroke-width: 1.5;" width="149" x="398" y="8"/><ellipse cx="423.8" cy="24" fill="#EB937F" rx="11" ry="11" style="stroke: #A80036; stroke-width: 1.0;"/><path d="M427.9094,30 L420.1906,30 L420.1906,17.6094 L427.9094,17.6094 L427.9094,19.7656 L422.6438,19.7656 L422.6438,22.4375 L427.4094,22.4375 L427.4094,24.5938 L422.6438,24.5938 L422.6438,27.8438 L427.9094,27.8438 L427.9094,30 Z "/><text fill="#000000" font-family="sans-serif" font-size="12" lengthAdjust="spacingAndGlyphs" textLength="93" x="440.2" y="28.1543">BusinessModel</text><line style="stroke: #A80036; stroke-width: 1.5;" x1="399" x2="546" y1="40" y2="40"/><text fill="#000000" font-family="sans-serif" font-size="11" lengthAdjust="spacingAndGlyphs" textLength="25" x="404" y="54.2104">Free</text><text fill="#000000" font-family="sans-serif" font-size="11" lengthAdjust="spacingAndGlyphs" textLength="110" x="404" y="67.0151">FreeWithLimitations</text><text fill="#000000" font-family="sans-serif" font-size="11" lengthAdjust="spacingAndGlyphs" textLength="93" x="404" y="79.8198">FreeTrialVersion</text><text fill="#000000" font-family="sans-serif" font-size="11" lengthAdjust="spacingAndGlyphs" textLength="107" x="404" y="92.6245">FlatRateAllInclusive</text><text fill="#000000" font-family="sans-serif" font-size="11" lengthAdjust="spacingAndGlyphs" textLength="137" x="404" y="105.4292">FlatRatesWithLimitations</text><text fill="#000000" font-family="sans-serif" font-size="11" lengthAdjust="spacingAndGlyphs" textLength="34" x="404" y="118.2339">Billing</text><line style="stroke: #A80036; stroke-width: 1.5;" x1="399" x2="546" y1="124.8281" y2="124.8281"/><!--class Provider--><rect fill="#FEFECE" filter="url(#fh1b0dbu1pux0)" height="99.2188" id="Provider" style="stroke: #A80036; stroke-width: 1.5;" width="137" x="6" y="611"/><ellipse cx="45.3" cy="627" fill="#ADD1B2" rx="11" ry="11" style="stroke: #A80036; stroke-width: 1.0;"/><path d="M48.2688,632.6406 Q47.6906,632.9375 47.05,633.0781 Q46.4094,633.2344 45.7063,633.2344 Q43.2063,633.2344 41.8781,631.5938 Q40.5656,629.9375 40.5656,626.8125 Q40.5656,623.6875 41.8781,622.0313 Q43.2063,620.375 45.7063,620.375 Q46.4094,620.375 47.05,620.5313 Q47.7063,620.6875 48.2688,620.9844 L48.2688,623.7031 Q47.6438,623.125 47.05,622.8594 Q46.4563,622.5781 45.8313,622.5781 Q44.4875,622.5781 43.8,623.6563 Q43.1125,624.7188 43.1125,626.8125 Q43.1125,628.9063 43.8,629.9844 Q44.4875,631.0469 45.8313,631.0469 Q46.4563,631.0469 47.05,630.7813 Q47.6438,630.5 48.2688,629.9219 L48.2688,632.6406 Z "/><text fill="#000000" font-family="sans-serif" font-size="12" lengthAdjust="spacingAndGlyphs" textLength="51" x="64.7" y="631.1543">Provider</text><line style="stroke: #A80036; stroke-width: 1.5;" x1="7" x2="142" y1="643" y2="643"/><text fill="#000000" font-family="sans-serif" font-size="11" lengthAdjust="spacingAndGlyphs" textLength="74" x="12" y="657.2104">name: String</text><text fill="#000000" font-family="sans-serif" font-size="11" lengthAdjust="spacingAndGlyphs" textLength="83" x="12" y="670.0151">logoUrl: Image</text><text fill="#000000" font-family="sans-serif" font-size="11" lengthAdjust="spacingAndGlyphs" textLength="105" x="12" y="682.8198">description: String</text><text fill="#000000" font-family="sans-serif" font-size="11" lengthAdjust="spacingAndGlyphs" textLength="125" x="12" y="695.6245">externalLinks: String[]</text><line style="stroke: #A80036; stroke-width: 1.5;" x1="7" x2="142" y1="702.2188" y2="702.2188"/><!--class RestApi--><rect fill="#FEFECE" filter="url(#fh1b0dbu1pux0)" height="86.4141" id="RestApi" style="stroke: #A80036; stroke-width: 1.5;" width="206" x="178.5" y="617.5"/><ellipse cx="253.75" cy="633.5" fill="#ADD1B2" rx="11" ry="11" style="stroke: #A80036; stroke-width: 1.0;"/><path d="M256.7188,639.1406 Q256.1406,639.4375 255.5,639.5781 Q254.8594,639.7344 254.1563,639.7344 Q251.6563,639.7344 250.3281,638.0938 Q249.0156,636.4375 249.0156,633.3125 Q249.0156,630.1875 250.3281,628.5313 Q251.6563,626.875 254.1563,626.875 Q254.8594,626.875 255.5,627.0313 Q256.1563,627.1875 256.7188,627.4844 L256.7188,630.2031 Q256.0938,629.625 255.5,629.3594 Q254.9063,629.0781 254.2813,629.0781 Q252.9375,629.0781 252.25,630.1563 Q251.5625,631.2188 251.5625,633.3125 Q251.5625,635.4063 252.25,636.4844 Q252.9375,637.5469 254.2813,637.5469 Q254.9063,637.5469 255.5,637.2813 Q256.0938,637 256.7188,636.4219 L256.7188,639.1406 Z "/><text fill="#000000" font-family="sans-serif" font-size="12" lengthAdjust="spacingAndGlyphs" textLength="47" x="274.25" y="637.6543">RestApi</text><line style="stroke: #A80036; stroke-width: 1.5;" x1="179.5" x2="383.5" y1="649.5" y2="649.5"/><text fill="#000000" font-family="sans-serif" font-size="11" lengthAdjust="spacingAndGlyphs" textLength="74" x="184.5" y="663.7104">name: String</text><text fill="#000000" font-family="sans-serif" font-size="11" lengthAdjust="spacingAndGlyphs" textLength="83" x="184.5" y="676.5151">logoUrl: Image</text><text fill="#000000" font-family="sans-serif" font-size="11" lengthAdjust="spacingAndGlyphs" textLength="194" x="184.5" y="689.3198">businessModels: BusinessModel[]</text><line style="stroke: #A80036; stroke-width: 1.5;" x1="179.5" x2="383.5" y1="695.9141" y2="695.9141"/><!--class Version--><rect fill="#FEFECE" filter="url(#fh1b0dbu1pux0)" height="124.8281" id="Version" style="stroke: #A80036; stroke-width: 1.5;" width="211" x="420" y="598"/><ellipse cx="497.75" cy="614" fill="#ADD1B2" rx="11" ry="11" style="stroke: #A80036; stroke-width: 1.0;"/><path d="M500.7188,619.6406 Q500.1406,619.9375 499.5,620.0781 Q498.8594,620.2344 498.1563,620.2344 Q495.6563,620.2344 494.3281,618.5938 Q493.0156,616.9375 493.0156,613.8125 Q493.0156,610.6875 494.3281,609.0313 Q495.6563,607.375 498.1563,607.375 Q498.8594,607.375 499.5,607.5313 Q500.1563,607.6875 500.7188,607.9844 L500.7188,610.7031 Q500.0938,610.125 499.5,609.8594 Q498.9063,609.5781 498.2813,609.5781 Q496.9375,609.5781 496.25,610.6563 Q495.5625,611.7188 495.5625,613.8125 Q495.5625,615.9063 496.25,616.9844 Q496.9375,618.0469 498.2813,618.0469 Q498.9063,618.0469 499.5,617.7813 Q500.0938,617.5 500.7188,616.9219 L500.7188,619.6406 Z "/><text fill="#000000" font-family="sans-serif" font-size="12" lengthAdjust="spacingAndGlyphs" textLength="47" x="518.25" y="618.1543">Version</text><line style="stroke: #A80036; stroke-width: 1.5;" x1="421" x2="630" y1="630" y2="630"/><text fill="#000000" font-family="sans-serif" font-size="11" lengthAdjust="spacingAndGlyphs" textLength="146" x="426" y="644.2104">number: String // Semver</text><text fill="#000000" font-family="sans-serif" font-size="11" lengthAdjust="spacingAndGlyphs" textLength="105" x="426" y="657.0151">description: String</text><text fill="#000000" font-family="sans-serif" font-size="11" lengthAdjust="spacingAndGlyphs" textLength="169" x="426" y="669.8198">originalDocumentation: String</text><text fill="#000000" font-family="sans-serif" font-size="11" lengthAdjust="spacingAndGlyphs" textLength="199" x="426" y="682.6245">oasDocumentation: Object //OASv3</text><text fill="#000000" font-family="sans-serif" font-size="11" lengthAdjust="spacingAndGlyphs" textLength="150" x="426" y="695.4292">metadata: Object //WebAPI</text><text fill="#000000" font-family="sans-serif" font-size="11" lengthAdjust="spacingAndGlyphs" textLength="163" x="426" y="708.2339">deprecated: Boolean = false</text><line style="stroke: #A80036; stroke-width: 1.5;" x1="421" x2="630" y1="714.8281" y2="714.8281"/><!--class User--><rect fill="#FEFECE" filter="url(#fh1b0dbu1pux0)" height="86.4141" id="User" style="stroke: #A80036; stroke-width: 1.5;" width="112" x="250.5" y="27.5"/><ellipse cx="288.45" cy="43.5" fill="#ADD1B2" rx="11" ry="11" style="stroke: #A80036; stroke-width: 1.0;"/><path d="M291.4188,49.1406 Q290.8406,49.4375 290.2,49.5781 Q289.5594,49.7344 288.8563,49.7344 Q286.3563,49.7344 285.0281,48.0938 Q283.7156,46.4375 283.7156,43.3125 Q283.7156,40.1875 285.0281,38.5313 Q286.3563,36.875 288.8563,36.875 Q289.5594,36.875 290.2,37.0313 Q290.8563,37.1875 291.4188,37.4844 L291.4188,40.2031 Q290.7938,39.625 290.2,39.3594 Q289.6063,39.0781 288.9813,39.0781 Q287.6375,39.0781 286.95,40.1563 Q286.2625,41.2188 286.2625,43.3125 Q286.2625,45.4063 286.95,46.4844 Q287.6375,47.5469 288.9813,47.5469 Q289.6063,47.5469 290.2,47.2813 Q290.7938,47 291.4188,46.4219 L291.4188,49.1406 Z "/><text fill="#000000" font-family="sans-serif" font-size="12" lengthAdjust="spacingAndGlyphs" textLength="29" x="307.55" y="47.6543">User</text><line style="stroke: #A80036; stroke-width: 1.5;" x1="251.5" x2="361.5" y1="59.5" y2="59.5"/><text fill="#000000" font-family="sans-serif" font-size="11" lengthAdjust="spacingAndGlyphs" textLength="100" x="256.5" y="73.7104">username: String</text><text fill="#000000" font-family="sans-serif" font-size="11" lengthAdjust="spacingAndGlyphs" textLength="73" x="256.5" y="86.5151">email: String</text><text fill="#000000" font-family="sans-serif" font-size="11" lengthAdjust="spacingAndGlyphs" textLength="98" x="256.5" y="99.3198">password: String</text><line style="stroke: #A80036; stroke-width: 1.5;" x1="251.5" x2="361.5" y1="105.9141" y2="105.9141"/><!--class Contributor--><rect fill="#FEFECE" filter="url(#fh1b0dbu1pux0)" height="73.6094" id="Contributor" style="stroke: #A80036; stroke-width: 1.5;" width="153" x="329" y="194"/><ellipse cx="366.5" cy="210" fill="#ADD1B2" rx="11" ry="11" style="stroke: #A80036; stroke-width: 1.0;"/><path d="M369.4688,215.6406 Q368.8906,215.9375 368.25,216.0781 Q367.6094,216.2344 366.9063,216.2344 Q364.4063,216.2344 363.0781,214.5938 Q361.7656,212.9375 361.7656,209.8125 Q361.7656,206.6875 363.0781,205.0313 Q364.4063,203.375 366.9063,203.375 Q367.6094,203.375 368.25,203.5313 Q368.9063,203.6875 369.4688,203.9844 L369.4688,206.7031 Q368.8438,206.125 368.25,205.8594 Q367.6563,205.5781 367.0313,205.5781 Q365.6875,205.5781 365,206.6563 Q364.3125,207.7188 364.3125,209.8125 Q364.3125,211.9063 365,212.9844 Q365.6875,214.0469 367.0313,214.0469 Q367.6563,214.0469 368.25,213.7813 Q368.8438,213.5 369.4688,212.9219 L369.4688,215.6406 Z "/><text fill="#000000" font-family="sans-serif" font-size="12" lengthAdjust="spacingAndGlyphs" textLength="71" x="385.5" y="214.1543">Contributor</text><line style="stroke: #A80036; stroke-width: 1.5;" x1="330" x2="481" y1="226" y2="226"/><text fill="#000000" font-family="sans-serif" font-size="11" lengthAdjust="spacingAndGlyphs" textLength="105" x="335" y="240.2104">description: String</text><text fill="#000000" font-family="sans-serif" font-size="11" lengthAdjust="spacingAndGlyphs" textLength="141" x="335" y="253.0151">banned: Boolean = false</text><line style="stroke: #A80036; stroke-width: 1.5;" x1="330" x2="481" y1="259.6094" y2="259.6094"/><!--class Administrator--><rect fill="#FEFECE" filter="url(#fh1b0dbu1pux0)" height="48" id="Administrator" style="stroke: #A80036; stroke-width: 1.5;" width="116" x="151.5" y="207"/><ellipse cx="166.5" cy="223" fill="#ADD1B2" rx="11" ry="11" style="stroke: #A80036; stroke-width: 1.0;"/><path d="M169.4688,228.6406 Q168.8906,228.9375 168.25,229.0781 Q167.6094,229.2344 166.9063,229.2344 Q164.4063,229.2344 163.0781,227.5938 Q161.7656,225.9375 161.7656,222.8125 Q161.7656,219.6875 163.0781,218.0313 Q164.4063,216.375 166.9063,216.375 Q167.6094,216.375 168.25,216.5313 Q168.9063,216.6875 169.4688,216.9844 L169.4688,219.7031 Q168.8438,219.125 168.25,218.8594 Q167.6563,218.5781 167.0313,218.5781 Q165.6875,218.5781 165,219.6563 Q164.3125,220.7188 164.3125,222.8125 Q164.3125,224.9063 165,225.9844 Q165.6875,227.0469 167.0313,227.0469 Q167.6563,227.0469 168.25,226.7813 Q168.8438,226.5 169.4688,225.9219 L169.4688,228.6406 Z "/><text fill="#000000" font-family="sans-serif" font-size="12" lengthAdjust="spacingAndGlyphs" textLength="84" x="180.5" y="227.1543">Administrator</text><line style="stroke: #A80036; stroke-width: 1.5;" x1="152.5" x2="266.5" y1="239" y2="239"/><line style="stroke: #A80036; stroke-width: 1.5;" x1="152.5" x2="266.5" y1="247" y2="247"/><!--class Contribution--><rect fill="#FEFECE" filter="url(#fh1b0dbu1pux0)" height="60.8047" id="Contribution" style="stroke: #A80036; stroke-width: 1.5;" width="171" x="196" y="476"/><ellipse cx="238.9" cy="492" fill="#ADD1B2" rx="11" ry="11" style="stroke: #A80036; stroke-width: 1.0;"/><path d="M241.8688,497.6406 Q241.2906,497.9375 240.65,498.0781 Q240.0094,498.2344 239.3063,498.2344 Q236.8063,498.2344 235.4781,496.5938 Q234.1656,494.9375 234.1656,491.8125 Q234.1656,488.6875 235.4781,487.0313 Q236.8063,485.375 239.3063,485.375 Q240.0094,485.375 240.65,485.5313 Q241.3063,485.6875 241.8688,485.9844 L241.8688,488.7031 Q241.2438,488.125 240.65,487.8594 Q240.0563,487.5781 239.4313,487.5781 Q238.0875,487.5781 237.4,488.6563 Q236.7125,489.7188 236.7125,491.8125 Q236.7125,493.9063 237.4,494.9844 Q238.0875,496.0469 239.4313,496.0469 Q240.0563,496.0469 240.65,495.7813 Q241.2438,495.5 241.8688,494.9219 L241.8688,497.6406 Z "/><text fill="#000000" font-family="sans-serif" font-size="12" lengthAdjust="spacingAndGlyphs" textLength="77" x="259.1" y="496.1543">Contribution</text><line style="stroke: #A80036; stroke-width: 1.5;" x1="197" x2="366" y1="508" y2="508"/><text fill="#000000" font-family="sans-serif" font-size="11" lengthAdjust="spacingAndGlyphs" textLength="159" x="202" y="522.2104">blacklisted: Boolean = false</text><line style="stroke: #A80036; stroke-width: 1.5;" x1="197" x2="366" y1="528.8047" y2="528.8047"/><!--class HistoryContribution--><rect fill="#FEFECE" filter="url(#fh1b0dbu1pux0)" height="86.4141" id="HistoryContribution" style="stroke: #A80036; stroke-width: 1.5;" width="287" x="522" y="329"/><ellipse cx="601.25" cy="345" fill="#ADD1B2" rx="11" ry="11" style="stroke: #A80036; stroke-width: 1.0;"/><path d="M604.2188,350.6406 Q603.6406,350.9375 603,351.0781 Q602.3594,351.2344 601.6563,351.2344 Q599.1563,351.2344 597.8281,349.5938 Q596.5156,347.9375 596.5156,344.8125 Q596.5156,341.6875 597.8281,340.0313 Q599.1563,338.375 601.6563,338.375 Q602.3594,338.375 603,338.5313 Q603.6563,338.6875 604.2188,338.9844 L604.2188,341.7031 Q603.5938,341.125 603,340.8594 Q602.4063,340.5781 601.7813,340.5781 Q600.4375,340.5781 599.75,341.6563 Q599.0625,342.7188 599.0625,344.8125 Q599.0625,346.9063 599.75,347.9844 Q600.4375,349.0469 601.7813,349.0469 Q602.4063,349.0469 603,348.7813 Q603.5938,348.5 604.2188,347.9219 L604.2188,350.6406 Z "/><text fill="#000000" font-family="sans-serif" font-size="12" lengthAdjust="spacingAndGlyphs" textLength="120" x="621.75" y="349.1543">HistoryContribution</text><line style="stroke: #A80036; stroke-width: 1.5;" x1="523" x2="808" y1="361" y2="361"/><text fill="#000000" font-family="sans-serif" font-size="11" lengthAdjust="spacingAndGlyphs" textLength="87" x="528" y="375.2104">date: DateTime</text><text fill="#000000" font-family="sans-serif" font-size="11" lengthAdjust="spacingAndGlyphs" textLength="174" x="528" y="388.0151">action: ['ADD', 'EDIT', 'DELETE']</text><text fill="#000000" font-family="sans-serif" font-size="11" lengthAdjust="spacingAndGlyphs" textLength="275" x="528" y="400.8198">typeContribution: ['Provider', 'RestAPI', 'Version']</text><line style="stroke: #A80036; stroke-width: 1.5;" x1="523" x2="808" y1="407.4141" y2="407.4141"/><ellipse cx="378.5" cy="372" fill="#000000" rx="2" ry="2" style="stroke: none; stroke-width: 1.0;"/><!--reverse link RestApi to Version--><path d="M397.991,660.5 C405.256,660.5 412.521,660.5 419.786,660.5 " fill="none" id="RestApi&lt;-Version" style="stroke: #A80036; stroke-width: 1.0;"/><polygon fill="#A80036" points="384.9141,660.5,390.9141,664.5,396.9141,660.5,390.9141,656.5,384.9141,660.5" style="stroke: #A80036; stroke-width: 1.0;"/><text fill="#000000" font-family="sans-serif" font-size="13" lengthAdjust="spacingAndGlyphs" textLength="23" x="388.9107" y="657.0732">0..*</text><!--link Provider to RestApi--><path d="M143.2305,660.5 C154.933,660.5 166.6355,660.5 178.338,660.5 " fill="none" id="Provider-RestApi" style="stroke: #A80036; stroke-width: 1.0;"/><text fill="#000000" font-family="sans-serif" font-size="13" lengthAdjust="spacingAndGlyphs" textLength="23" x="147.6341" y="657.0535">0..*</text><!--reverse link User to Administrator--><path d="M270.0975,130.7331 C254.1215,157.1675 236.2748,186.6974 224.1121,206.8222 " fill="none" id="User&lt;-Administrator" style="stroke: #A80036; stroke-width: 1.0;"/><polygon fill="none" points="264.1701,127.0072,280.5058,113.5111,276.1519,134.2486,264.1701,127.0072" style="stroke: #A80036; stroke-width: 1.0;"/><!--reverse link User to Contributor--><path d="M343.6429,130.7166 C356.7257,151.9266 371.0389,175.1312 382.5989,193.8725 " fill="none" id="User&lt;-Contributor" style="stroke: #A80036; stroke-width: 1.0;"/><polygon fill="none" points="337.5721,134.2082,333.0302,113.5111,349.4877,126.8584,337.5721,134.2082" style="stroke: #A80036; stroke-width: 1.0;"/><!--link Administrator to Contribution--><path d="M215.8895,255.4488 C228.6513,304.2805 257.3419,414.0615 272.195,470.8955 " fill="none" id="Administrator-&gt;Contribution" style="stroke: #A80036; stroke-width: 1.0;"/><polygon fill="#A80036" points="273.5012,475.8936,275.0955,466.1746,272.2369,471.0561,267.3554,468.1975,273.5012,475.8936" style="stroke: #A80036; stroke-width: 1.0;"/><text fill="#000000" font-family="sans-serif" font-size="13" lengthAdjust="spacingAndGlyphs" textLength="52" x="258.5" y="376.5669">Blacklist</text><!--link Administrator to Contributor--><path d="M267.5109,231 C285.0517,231 304.6556,231 323.4546,231 " fill="none" id="Administrator-&gt;Contributor" style="stroke: #A80036; stroke-width: 1.0;"/><polygon fill="#A80036" points="328.7332,231,319.7332,227,323.7332,231,319.7332,235,328.7332,231" style="stroke: #A80036; stroke-width: 1.0;"/><text fill="#000000" font-family="sans-serif" font-size="13" lengthAdjust="spacingAndGlyphs" textLength="25" x="285.75" y="224.0669">Ban</text><!--link Contributor to apoint17--><path d="M398.4061,268.0461 C391.2814,305.2527 381.0578,358.6426 378.9066,369.8766 " fill="none" id="Contributor-apoint17" style="stroke: #A80036; stroke-width: 1.0;"/><!--link apoint17 to Contribution--><path d="M377.1288,373.9013 C369.2535,384.8211 329.2313,440.3159 303.5222,475.9641 " fill="none" id="apoint17-Contribution" style="stroke: #A80036; stroke-width: 1.0;"/><!--link apoint17 to HistoryContribution--><path d="M380.6451,372 C393.0586,372 457.3752,372 521.757,372 " fill="none" id="apoint17-HistoryContribution" style="stroke: #A80036; stroke-width: 1.0; stroke-dasharray: 7.0,7.0;"/><text fill="#000000" font-family="sans-serif" font-size="13" lengthAdjust="spacingAndGlyphs" textLength="105" x="398.75" y="365.0669">Add, edit, delete</text><!--reverse link Contribution to Provider--><path d="M223.9801,549.2926 C198.2597,568.4276 167.7844,591.1 141.082,610.9656 " fill="none" id="Contribution&lt;-Provider" style="stroke: #A80036; stroke-width: 1.0;"/><polygon fill="none" points="219.8833,543.6158,240.108,537.2941,228.2398,554.8482,219.8833,543.6158" style="stroke: #A80036; stroke-width: 1.0;"/><!--reverse link Contribution to RestApi--><path d="M281.5,557.4163 C281.5,576.7764 281.5,598.6311 281.5,617.219 " fill="none" id="Contribution&lt;-RestApi" style="stroke: #A80036; stroke-width: 1.0;"/><polygon fill="none" points="274.5001,557.2941,281.5,537.2941,288.5001,557.294,274.5001,557.2941" style="stroke: #A80036; stroke-width: 1.0;"/><!--reverse link Contribution to Version--><path d="M347.0006,547.8406 C371.3953,563.2372 399.658,581.0751 426.3984,597.9523 " fill="none" id="Contribution&lt;-Version" style="stroke: #A80036; stroke-width: 1.0;"/><polygon fill="none" points="343.1752,553.7038,329.9983,537.1096,350.6475,541.8647,343.1752,553.7038" style="stroke: #A80036; stroke-width: 1.0;"/><!--
@startuml "DC APIs Repositorio"
enum BusinessModel {
    Free
    FreeWithLimitations
    FreeTrialVersion
    FlatRateAllInclusive
    FlatRatesWithLimitations
    Billing
}

class Provider {
    name: String
    logoUrl: Image
    description: String
    externalLinks: String[]
}

class RestApi {
   name: String
   logoUrl: Image
   businessModels: BusinessModel[]
}

class Version {
    number: String // Semver
    description: String
    originalDocumentation: String
    oasDocumentation: Object //OASv3
    metadata: Object //WebAPI
    deprecated: Boolean = false
}

class User {
    username: String
    email: String
    password: String
}

class Contributor {
    description: String
    banned: Boolean = false
}

class Administrator {

}

class Contribution {
    blacklisted: Boolean = false
}

class HistoryContribution {
    date: DateTime
    action: ['ADD', 'EDIT', 'DELETE']
    typeContribution: ['Provider', 'RestAPI', 'Version']
}

RestApi *-right- "0..*" Version
Provider -right- "0..*" RestApi
User <|- - Administrator
User <|- - Contributor
Administrator - -> Contribution: Blacklist
Administrator -right-> Contributor: Ban
(Contributor,Contribution) .. HistoryContribution: Add, edit, delete
Contribution <|- - Provider
Contribution <|- - RestApi
Contribution <|- - Version

@enduml

PlantUML version 1.2019.09(Mon Aug 26 18:19:51 CEST 2019)
(GPL source distribution)
Java Runtime: OpenJDK Runtime Environment
JVM: OpenJDK 64-Bit Server VM
Java Version: 11.0.6+10-post-Ubuntu-1ubuntu118.04.1
Operating System: Linux
OS Version: 5.3.0-45-generic
Default Encoding: UTF-8
Language: en
Country: US
--></g></svg>