<?xml version="1.0" encoding="UTF-8" standalone="no"?><svg xmlns="http://www.w3.org/2000/svg" xmlns:xlink="http://www.w3.org/1999/xlink" contentScriptType="application/ecmascript" contentStyleType="text/css" height="577px" preserveAspectRatio="none" style="width:620px;height:577px;" version="1.1" viewBox="0 0 620 577" width="620px" zoomAndPan="magnify"><defs><filter height="300%" id="f12bya69ivvc29" width="300%" x="-1" y="-1"><feGaussianBlur result="blurOut" stdDeviation="2.0"/><feColorMatrix in="blurOut" result="blurOut2" type="matrix" values="0 0 0 0 0 0 0 0 0 0 0 0 0 0 0 0 0 0 .4 0"/><feOffset dx="4.0" dy="4.0" in="blurOut2" result="blurOut3"/><feBlend in="SourceGraphic" in2="blurOut3" mode="normal"/></filter></defs><g><!--class BusinessModel--><rect fill="#FEFECE" filter="url(#f12bya69ivvc29)" height="124.8281" id="BusinessModel" style="stroke: #A80036; stroke-width: 1.5;" width="149" x="373" y="8"/><ellipse cx="398.8" cy="24" fill="#EB937F" rx="11" ry="11" style="stroke: #A80036; stroke-width: 1.0;"/><path d="M402.9094,30 L395.1906,30 L395.1906,17.6094 L402.9094,17.6094 L402.9094,19.7656 L397.6438,19.7656 L397.6438,22.4375 L402.4094,22.4375 L402.4094,24.5938 L397.6438,24.5938 L397.6438,27.8438 L402.9094,27.8438 L402.9094,30 Z "/><text fill="#000000" font-family="sans-serif" font-size="12" lengthAdjust="spacingAndGlyphs" textLength="93" x="415.2" y="28.1543">BusinessModel</text><line style="stroke: #A80036; stroke-width: 1.5;" x1="374" x2="521" y1="40" y2="40"/><text fill="#000000" font-family="sans-serif" font-size="11" lengthAdjust="spacingAndGlyphs" textLength="25" x="379" y="54.2104">Free</text><text fill="#000000" font-family="sans-serif" font-size="11" lengthAdjust="spacingAndGlyphs" textLength="110" x="379" y="67.0151">FreeWithLimitations</text><text fill="#000000" font-family="sans-serif" font-size="11" lengthAdjust="spacingAndGlyphs" textLength="93" x="379" y="79.8198">FreeTrialVersion</text><text fill="#000000" font-family="sans-serif" font-size="11" lengthAdjust="spacingAndGlyphs" textLength="107" x="379" y="92.6245">FlatRateAllInclusive</text><text fill="#000000" font-family="sans-serif" font-size="11" lengthAdjust="spacingAndGlyphs" textLength="137" x="379" y="105.4292">FlatRatesWithLimitations</text><text fill="#000000" font-family="sans-serif" font-size="11" lengthAdjust="spacingAndGlyphs" textLength="34" x="379" y="118.2339">Billing</text><line style="stroke: #A80036; stroke-width: 1.5;" x1="374" x2="521" y1="124.8281" y2="124.8281"/><!--class Provider--><rect fill="#FEFECE" filter="url(#f12bya69ivvc29)" height="99.2188" id="Provider" style="stroke: #A80036; stroke-width: 1.5;" width="137" x="6" y="467"/><ellipse cx="45.3" cy="483" fill="#ADD1B2" rx="11" ry="11" style="stroke: #A80036; stroke-width: 1.0;"/><path d="M48.2688,488.6406 Q47.6906,488.9375 47.05,489.0781 Q46.4094,489.2344 45.7063,489.2344 Q43.2063,489.2344 41.8781,487.5938 Q40.5656,485.9375 40.5656,482.8125 Q40.5656,479.6875 41.8781,478.0313 Q43.2063,476.375 45.7063,476.375 Q46.4094,476.375 47.05,476.5313 Q47.7063,476.6875 48.2688,476.9844 L48.2688,479.7031 Q47.6438,479.125 47.05,478.8594 Q46.4563,478.5781 45.8313,478.5781 Q44.4875,478.5781 43.8,479.6563 Q43.1125,480.7188 43.1125,482.8125 Q43.1125,484.9063 43.8,485.9844 Q44.4875,487.0469 45.8313,487.0469 Q46.4563,487.0469 47.05,486.7813 Q47.6438,486.5 48.2688,485.9219 L48.2688,488.6406 Z "/><text fill="#000000" font-family="sans-serif" font-size="12" lengthAdjust="spacingAndGlyphs" textLength="51" x="64.7" y="487.1543">Provider</text><line style="stroke: #A80036; stroke-width: 1.5;" x1="7" x2="142" y1="499" y2="499"/><text fill="#000000" font-family="sans-serif" font-size="11" lengthAdjust="spacingAndGlyphs" textLength="74" x="12" y="513.2104">name: String</text><text fill="#000000" font-family="sans-serif" font-size="11" lengthAdjust="spacingAndGlyphs" textLength="67" x="12" y="526.0151">logo: Image</text><text fill="#000000" font-family="sans-serif" font-size="11" lengthAdjust="spacingAndGlyphs" textLength="105" x="12" y="538.8198">description: String</text><text fill="#000000" font-family="sans-serif" font-size="11" lengthAdjust="spacingAndGlyphs" textLength="125" x="12" y="551.6245">externalLinks: String[]</text><line style="stroke: #A80036; stroke-width: 1.5;" x1="7" x2="142" y1="558.2188" y2="558.2188"/><!--class RestApi--><rect fill="#FEFECE" filter="url(#f12bya69ivvc29)" height="86.4141" id="RestApi" style="stroke: #A80036; stroke-width: 1.5;" width="206" x="178.5" y="473.5"/><ellipse cx="253.75" cy="489.5" fill="#ADD1B2" rx="11" ry="11" style="stroke: #A80036; stroke-width: 1.0;"/><path d="M256.7188,495.1406 Q256.1406,495.4375 255.5,495.5781 Q254.8594,495.7344 254.1563,495.7344 Q251.6563,495.7344 250.3281,494.0938 Q249.0156,492.4375 249.0156,489.3125 Q249.0156,486.1875 250.3281,484.5313 Q251.6563,482.875 254.1563,482.875 Q254.8594,482.875 255.5,483.0313 Q256.1563,483.1875 256.7188,483.4844 L256.7188,486.2031 Q256.0938,485.625 255.5,485.3594 Q254.9063,485.0781 254.2813,485.0781 Q252.9375,485.0781 252.25,486.1563 Q251.5625,487.2188 251.5625,489.3125 Q251.5625,491.4063 252.25,492.4844 Q252.9375,493.5469 254.2813,493.5469 Q254.9063,493.5469 255.5,493.2813 Q256.0938,493 256.7188,492.4219 L256.7188,495.1406 Z "/><text fill="#000000" font-family="sans-serif" font-size="12" lengthAdjust="spacingAndGlyphs" textLength="47" x="274.25" y="493.6543">RestApi</text><line style="stroke: #A80036; stroke-width: 1.5;" x1="179.5" x2="383.5" y1="505.5" y2="505.5"/><text fill="#000000" font-family="sans-serif" font-size="11" lengthAdjust="spacingAndGlyphs" textLength="63" x="184.5" y="519.7104">title: String</text><text fill="#000000" font-family="sans-serif" font-size="11" lengthAdjust="spacingAndGlyphs" textLength="67" x="184.5" y="532.5151">logo: Image</text><text fill="#000000" font-family="sans-serif" font-size="11" lengthAdjust="spacingAndGlyphs" textLength="194" x="184.5" y="545.3198">businessModels: BusinessModel[]</text><line style="stroke: #A80036; stroke-width: 1.5;" x1="179.5" x2="383.5" y1="551.9141" y2="551.9141"/><!--class Version--><rect fill="#FEFECE" filter="url(#f12bya69ivvc29)" height="99.2188" id="Version" style="stroke: #A80036; stroke-width: 1.5;" width="189" x="420" y="467"/><ellipse cx="486.75" cy="483" fill="#ADD1B2" rx="11" ry="11" style="stroke: #A80036; stroke-width: 1.0;"/><path d="M489.7188,488.6406 Q489.1406,488.9375 488.5,489.0781 Q487.8594,489.2344 487.1563,489.2344 Q484.6563,489.2344 483.3281,487.5938 Q482.0156,485.9375 482.0156,482.8125 Q482.0156,479.6875 483.3281,478.0313 Q484.6563,476.375 487.1563,476.375 Q487.8594,476.375 488.5,476.5313 Q489.1563,476.6875 489.7188,476.9844 L489.7188,479.7031 Q489.0938,479.125 488.5,478.8594 Q487.9063,478.5781 487.2813,478.5781 Q485.9375,478.5781 485.25,479.6563 Q484.5625,480.7188 484.5625,482.8125 Q484.5625,484.9063 485.25,485.9844 Q485.9375,487.0469 487.2813,487.0469 Q487.9063,487.0469 488.5,486.7813 Q489.0938,486.5 489.7188,485.9219 L489.7188,488.6406 Z "/><text fill="#000000" font-family="sans-serif" font-size="12" lengthAdjust="spacingAndGlyphs" textLength="47" x="507.25" y="487.1543">Version</text><line style="stroke: #A80036; stroke-width: 1.5;" x1="421" x2="608" y1="499" y2="499"/><text fill="#000000" font-family="sans-serif" font-size="11" lengthAdjust="spacingAndGlyphs" textLength="146" x="426" y="513.2104">number: String // Semver</text><text fill="#000000" font-family="sans-serif" font-size="11" lengthAdjust="spacingAndGlyphs" textLength="177" x="426" y="526.0151">documentation: Object //OASv3</text><text fill="#000000" font-family="sans-serif" font-size="11" lengthAdjust="spacingAndGlyphs" textLength="150" x="426" y="538.8198">metadata: Object //WebAPI</text><text fill="#000000" font-family="sans-serif" font-size="11" lengthAdjust="spacingAndGlyphs" textLength="118" x="426" y="551.6245">deprecated: Boolean</text><line style="stroke: #A80036; stroke-width: 1.5;" x1="421" x2="608" y1="558.2188" y2="558.2188"/><!--class User--><rect fill="#FEFECE" filter="url(#f12bya69ivvc29)" height="86.4141" id="User" style="stroke: #A80036; stroke-width: 1.5;" width="112" x="225.5" y="27.5"/><ellipse cx="263.45" cy="43.5" fill="#ADD1B2" rx="11" ry="11" style="stroke: #A80036; stroke-width: 1.0;"/><path d="M266.4188,49.1406 Q265.8406,49.4375 265.2,49.5781 Q264.5594,49.7344 263.8563,49.7344 Q261.3563,49.7344 260.0281,48.0938 Q258.7156,46.4375 258.7156,43.3125 Q258.7156,40.1875 260.0281,38.5313 Q261.3563,36.875 263.8563,36.875 Q264.5594,36.875 265.2,37.0313 Q265.8563,37.1875 266.4188,37.4844 L266.4188,40.2031 Q265.7938,39.625 265.2,39.3594 Q264.6063,39.0781 263.9813,39.0781 Q262.6375,39.0781 261.95,40.1563 Q261.2625,41.2188 261.2625,43.3125 Q261.2625,45.4063 261.95,46.4844 Q262.6375,47.5469 263.9813,47.5469 Q264.6063,47.5469 265.2,47.2813 Q265.7938,47 266.4188,46.4219 L266.4188,49.1406 Z "/><text fill="#000000" font-family="sans-serif" font-size="12" lengthAdjust="spacingAndGlyphs" textLength="29" x="282.55" y="47.6543">User</text><line style="stroke: #A80036; stroke-width: 1.5;" x1="226.5" x2="336.5" y1="59.5" y2="59.5"/><text fill="#000000" font-family="sans-serif" font-size="11" lengthAdjust="spacingAndGlyphs" textLength="100" x="231.5" y="73.7104">username: String</text><text fill="#000000" font-family="sans-serif" font-size="11" lengthAdjust="spacingAndGlyphs" textLength="73" x="231.5" y="86.5151">email: String</text><text fill="#000000" font-family="sans-serif" font-size="11" lengthAdjust="spacingAndGlyphs" textLength="98" x="231.5" y="99.3198">password: String</text><line style="stroke: #A80036; stroke-width: 1.5;" x1="226.5" x2="336.5" y1="105.9141" y2="105.9141"/><!--class Explorer--><rect fill="#FEFECE" filter="url(#f12bya69ivvc29)" height="73.6094" id="Explorer" style="stroke: #A80036; stroke-width: 1.5;" width="117" x="135" y="194"/><ellipse cx="165.3" cy="210" fill="#ADD1B2" rx="11" ry="11" style="stroke: #A80036; stroke-width: 1.0;"/><path d="M168.2688,215.6406 Q167.6906,215.9375 167.05,216.0781 Q166.4094,216.2344 165.7063,216.2344 Q163.2063,216.2344 161.8781,214.5938 Q160.5656,212.9375 160.5656,209.8125 Q160.5656,206.6875 161.8781,205.0313 Q163.2063,203.375 165.7063,203.375 Q166.4094,203.375 167.05,203.5313 Q167.7063,203.6875 168.2688,203.9844 L168.2688,206.7031 Q167.6438,206.125 167.05,205.8594 Q166.4563,205.5781 165.8313,205.5781 Q164.4875,205.5781 163.8,206.6563 Q163.1125,207.7188 163.1125,209.8125 Q163.1125,211.9063 163.8,212.9844 Q164.4875,214.0469 165.8313,214.0469 Q166.4563,214.0469 167.05,213.7813 Q167.6438,213.5 168.2688,212.9219 L168.2688,215.6406 Z "/><text fill="#000000" font-family="sans-serif" font-size="12" lengthAdjust="spacingAndGlyphs" textLength="51" x="182.7" y="214.1543">Explorer</text><line style="stroke: #A80036; stroke-width: 1.5;" x1="136" x2="251" y1="226" y2="226"/><text fill="#000000" font-family="sans-serif" font-size="11" lengthAdjust="spacingAndGlyphs" textLength="105" x="141" y="240.2104">description: String</text><text fill="#000000" font-family="sans-serif" font-size="11" lengthAdjust="spacingAndGlyphs" textLength="96" x="141" y="253.0151">banned: Boolean</text><line style="stroke: #A80036; stroke-width: 1.5;" x1="136" x2="251" y1="259.6094" y2="259.6094"/><!--class Administrator--><rect fill="#FEFECE" filter="url(#f12bya69ivvc29)" height="48" id="Administrator" style="stroke: #A80036; stroke-width: 1.5;" width="116" x="313.5" y="207"/><ellipse cx="328.5" cy="223" fill="#ADD1B2" rx="11" ry="11" style="stroke: #A80036; stroke-width: 1.0;"/><path d="M331.4688,228.6406 Q330.8906,228.9375 330.25,229.0781 Q329.6094,229.2344 328.9063,229.2344 Q326.4063,229.2344 325.0781,227.5938 Q323.7656,225.9375 323.7656,222.8125 Q323.7656,219.6875 325.0781,218.0313 Q326.4063,216.375 328.9063,216.375 Q329.6094,216.375 330.25,216.5313 Q330.9063,216.6875 331.4688,216.9844 L331.4688,219.7031 Q330.8438,219.125 330.25,218.8594 Q329.6563,218.5781 329.0313,218.5781 Q327.6875,218.5781 327,219.6563 Q326.3125,220.7188 326.3125,222.8125 Q326.3125,224.9063 327,225.9844 Q327.6875,227.0469 329.0313,227.0469 Q329.6563,227.0469 330.25,226.7813 Q330.8438,226.5 331.4688,225.9219 L331.4688,228.6406 Z "/><text fill="#000000" font-family="sans-serif" font-size="12" lengthAdjust="spacingAndGlyphs" textLength="84" x="342.5" y="227.1543">Administrator</text><line style="stroke: #A80036; stroke-width: 1.5;" x1="314.5" x2="428.5" y1="239" y2="239"/><line style="stroke: #A80036; stroke-width: 1.5;" x1="314.5" x2="428.5" y1="247" y2="247"/><!--class Contribution--><rect fill="#FEFECE" filter="url(#f12bya69ivvc29)" height="60.8047" id="Contribution" style="stroke: #A80036; stroke-width: 1.5;" width="126" x="218.5" y="345"/><ellipse cx="241.15" cy="361" fill="#ADD1B2" rx="11" ry="11" style="stroke: #A80036; stroke-width: 1.0;"/><path d="M244.1188,366.6406 Q243.5406,366.9375 242.9,367.0781 Q242.2594,367.2344 241.5563,367.2344 Q239.0563,367.2344 237.7281,365.5938 Q236.4156,363.9375 236.4156,360.8125 Q236.4156,357.6875 237.7281,356.0313 Q239.0563,354.375 241.5563,354.375 Q242.2594,354.375 242.9,354.5313 Q243.5563,354.6875 244.1188,354.9844 L244.1188,357.7031 Q243.4938,357.125 242.9,356.8594 Q242.3063,356.5781 241.6813,356.5781 Q240.3375,356.5781 239.65,357.6563 Q238.9625,358.7188 238.9625,360.8125 Q238.9625,362.9063 239.65,363.9844 Q240.3375,365.0469 241.6813,365.0469 Q242.3063,365.0469 242.9,364.7813 Q243.4938,364.5 244.1188,363.9219 L244.1188,366.6406 Z "/><text fill="#000000" font-family="sans-serif" font-size="12" lengthAdjust="spacingAndGlyphs" textLength="77" x="256.85" y="365.1543">Contribution</text><line style="stroke: #A80036; stroke-width: 1.5;" x1="219.5" x2="343.5" y1="377" y2="377"/><text fill="#000000" font-family="sans-serif" font-size="11" lengthAdjust="spacingAndGlyphs" textLength="114" x="224.5" y="391.2104">blacklisted: Boolean</text><line style="stroke: #A80036; stroke-width: 1.5;" x1="219.5" x2="343.5" y1="397.8047" y2="397.8047"/><!--reverse link RestApi to Version--><path d="M397.9118,516.5 C405.1946,516.5 412.4774,516.5 419.7602,516.5 " fill="none" id="RestApi&lt;-Version" style="stroke: #A80036; stroke-width: 1.0;"/><polygon fill="#A80036" points="384.8027,516.5,390.8027,520.5,396.8027,516.5,390.8027,512.5,384.8027,516.5" style="stroke: #A80036; stroke-width: 1.0;"/><text fill="#000000" font-family="sans-serif" font-size="13" lengthAdjust="spacingAndGlyphs" textLength="23" x="388.9582" y="513.013">0..*</text><!--reverse link Provider to RestApi--><path d="M156.3958,516.5 C163.7098,516.5 171.0239,516.5 178.338,516.5 " fill="none" id="Provider&lt;-RestApi" style="stroke: #A80036; stroke-width: 1.0;"/><polygon fill="#FFFFFF" points="143.2305,516.5,149.2305,520.5,155.2305,516.5,149.2305,512.5,143.2305,516.5" style="stroke: #A80036; stroke-width: 1.0;"/><text fill="#000000" font-family="sans-serif" font-size="13" lengthAdjust="spacingAndGlyphs" textLength="23" x="147.6341" y="513.0535">0..*</text><!--reverse link User to Administrator--><path d="M315.4884,131.1127 C330.2569,157.4499 346.7114,186.7936 357.9424,206.8222 " fill="none" id="User&lt;-Administrator" style="stroke: #A80036; stroke-width: 1.0;"/><polygon fill="none" points="309.2948,134.3793,305.6183,113.5111,321.506,127.5319,309.2948,134.3793" style="stroke: #A80036; stroke-width: 1.0;"/><!--reverse link User to Explorer--><path d="M248.1349,131.3535 C236.6007,152.3902 224.0294,175.3186 213.8565,193.8725 " fill="none" id="User&lt;-Explorer" style="stroke: #A80036; stroke-width: 1.0;"/><polygon fill="none" points="242.1643,127.6827,257.9176,113.5111,254.4402,134.4134,242.1643,127.6827" style="stroke: #A80036; stroke-width: 1.0;"/><!--link Administrator to Contribution--><path d="M358.803,255.2981 C349.7066,272.292 336.9174,295.3695 324.5,315 C319.2108,323.3617 313.2262,332.15 307.4392,340.3567 " fill="none" id="Administrator-&gt;Contribution" style="stroke: #A80036; stroke-width: 1.0;"/><polygon fill="#A80036" points="304.2501,344.8498,312.7212,339.8258,307.1441,340.7725,306.1975,335.1954,304.2501,344.8498" style="stroke: #A80036; stroke-width: 1.0;"/><text fill="#000000" font-family="sans-serif" font-size="13" lengthAdjust="spacingAndGlyphs" textLength="52" x="334.5" y="311.0669">Blacklist</text><!--reverse link Explorer to Administrator--><path d="M257.3885,231 C275.6654,231 295.481,231 313.3913,231 " fill="none" id="Explorer&lt;-Administrator" style="stroke: #A80036; stroke-width: 1.0;"/><polygon fill="#A80036" points="252.2772,231,261.2772,235,257.2772,231,261.2772,227,252.2772,231" style="stroke: #A80036; stroke-width: 1.0;"/><text fill="#000000" font-family="sans-serif" font-size="13" lengthAdjust="spacingAndGlyphs" textLength="25" x="270.25" y="224.0669">Ban</text><!--link Explorer to Contribution--><path d="M197.4178,268.4088 C200.2467,283.6638 205.1169,300.9741 213.5,315 C219.1431,324.4416 226.7451,333.2217 234.8233,341.0021 " fill="none" id="Explorer-&gt;Contribution" style="stroke: #A80036; stroke-width: 1.0;"/><polygon fill="#A80036" points="238.8207,344.7397,234.9785,335.6712,235.1684,341.3249,229.5148,341.5148,238.8207,344.7397" style="stroke: #A80036; stroke-width: 1.0;"/><text fill="#000000" font-family="sans-serif" font-size="13" lengthAdjust="spacingAndGlyphs" textLength="105" x="214.5" y="311.0669">Add, edit, delete</text><!--reverse link Contribution to Provider--><path d="M219.8004,417.5273 C195.7421,433.9148 168.0621,452.7693 143.3583,469.5965 " fill="none" id="Contribution&lt;-Provider" style="stroke: #A80036; stroke-width: 1.0;"/><polygon fill="none" points="216.1137,411.5689,236.5841,406.0949,223.9952,423.1396,216.1137,411.5689" style="stroke: #A80036; stroke-width: 1.0;"/><!--reverse link Contribution to RestApi--><path d="M281.5,426.3089 C281.5,441.7342 281.5,458.5269 281.5,473.3947 " fill="none" id="Contribution&lt;-RestApi" style="stroke: #A80036; stroke-width: 1.0;"/><polygon fill="none" points="274.5001,426.0949,281.5,406.0949,288.5001,426.0949,274.5001,426.0949" style="stroke: #A80036; stroke-width: 1.0;"/><!--reverse link Contribution to Version--><path d="M349.3388,416.5527 C375.3284,432.2803 405.2569,450.3915 432.4374,466.8398 " fill="none" id="Contribution&lt;-Version" style="stroke: #A80036; stroke-width: 1.0;"/><polygon fill="none" points="345.5443,422.4384,332.0575,406.0949,352.7925,410.4608,345.5443,422.4384" style="stroke: #A80036; stroke-width: 1.0;"/><!--
@startuml "DC APIs Repositorio"
enum BusinessModel {
    Free
    FreeWithLimitations
    FreeTrialVersion
    FlatRateAllInclusive
    FlatRatesWithLimitations
    Billing
}

class Provider {
    name: String
    logo: Image
    description: String
    externalLinks: String[]
}

class RestApi {
   title: String
   logo: Image
   businessModels: BusinessModel[]
}

class Version {
    number: String // Semver
    documentation: Object //OASv3
    metadata: Object //WebAPI
    deprecated: Boolean
}

class User {
    username: String
    email: String
    password: String
}

class Explorer {
    description: String
    banned: Boolean
}

class Administrator {

}

class Contribution {
    blacklisted: Boolean
}

RestApi *-right- "0..*" Version
Provider o-right- "0..*" RestApi
User <|- - Administrator
User <|- - Explorer
Administrator - -> Contribution: Blacklist
Administrator -left-> Explorer: Ban
Explorer - -> Contribution: Add, edit, delete
Contribution <|- - Provider
Contribution <|- - RestApi
Contribution <|- - Version
@enduml

PlantUML version 1.2019.09(Mon Aug 26 18:19:51 CEST 2019)
(GPL source distribution)
Java Runtime: OpenJDK Runtime Environment
JVM: OpenJDK 64-Bit Server VM
Java Version: 1.8.0_242-8u242-b08-0ubuntu3~18.04-b08
Operating System: Linux
OS Version: 5.3.0-42-generic
Default Encoding: UTF-8
Language: fr
Country: FR
--></g></svg>