<?xml version="1.0" encoding="UTF-8" standalone="no"?><svg xmlns="http://www.w3.org/2000/svg" xmlns:xlink="http://www.w3.org/1999/xlink" contentScriptType="application/ecmascript" contentStyleType="text/css" height="640px" preserveAspectRatio="none" style="width:862px;height:640px;" version="1.1" viewBox="0 0 862 640" width="862px" zoomAndPan="magnify"><defs><filter height="300%" id="fc5nuasp37unl" width="300%" x="-1" y="-1"><feGaussianBlur result="blurOut" stdDeviation="2.0"/><feColorMatrix in="blurOut" result="blurOut2" type="matrix" values="0 0 0 0 0 0 0 0 0 0 0 0 0 0 0 0 0 0 .4 0"/><feOffset dx="4.0" dy="4.0" in="blurOut2" result="blurOut3"/><feBlend in="SourceGraphic" in2="blurOut3" mode="normal"/></filter></defs><g><!--class BusinessModel--><rect fill="#FEFECE" filter="url(#fc5nuasp37unl)" height="124.8281" id="BusinessModel" style="stroke: #A80036; stroke-width: 1.5;" width="149" x="593" y="8"/><ellipse cx="618.8" cy="24" fill="#EB937F" rx="11" ry="11" style="stroke: #A80036; stroke-width: 1.0;"/><path d="M622.9094,30 L615.1906,30 L615.1906,17.6094 L622.9094,17.6094 L622.9094,19.7656 L617.6438,19.7656 L617.6438,22.4375 L622.4094,22.4375 L622.4094,24.5938 L617.6438,24.5938 L617.6438,27.8438 L622.9094,27.8438 L622.9094,30 Z "/><text fill="#000000" font-family="sans-serif" font-size="12" lengthAdjust="spacingAndGlyphs" textLength="93" x="635.2" y="28.1543">BusinessModel</text><line style="stroke: #A80036; stroke-width: 1.5;" x1="594" x2="741" y1="40" y2="40"/><text fill="#000000" font-family="sans-serif" font-size="11" lengthAdjust="spacingAndGlyphs" textLength="25" x="599" y="54.2104">Free</text><text fill="#000000" font-family="sans-serif" font-size="11" lengthAdjust="spacingAndGlyphs" textLength="110" x="599" y="67.0151">FreeWithLimitations</text><text fill="#000000" font-family="sans-serif" font-size="11" lengthAdjust="spacingAndGlyphs" textLength="93" x="599" y="79.8198">FreeTrialVersion</text><text fill="#000000" font-family="sans-serif" font-size="11" lengthAdjust="spacingAndGlyphs" textLength="107" x="599" y="92.6245">FlatRateAllInclusive</text><text fill="#000000" font-family="sans-serif" font-size="11" lengthAdjust="spacingAndGlyphs" textLength="137" x="599" y="105.4292">FlatRatesWithLimitations</text><text fill="#000000" font-family="sans-serif" font-size="11" lengthAdjust="spacingAndGlyphs" textLength="34" x="599" y="118.2339">Billing</text><line style="stroke: #A80036; stroke-width: 1.5;" x1="594" x2="741" y1="124.8281" y2="124.8281"/><!--class Provider--><rect fill="#FEFECE" filter="url(#fc5nuasp37unl)" height="99.2188" id="Provider" style="stroke: #A80036; stroke-width: 1.5;" width="137" x="226" y="518"/><ellipse cx="265.3" cy="534" fill="#ADD1B2" rx="11" ry="11" style="stroke: #A80036; stroke-width: 1.0;"/><path d="M268.2688,539.6406 Q267.6906,539.9375 267.05,540.0781 Q266.4094,540.2344 265.7063,540.2344 Q263.2063,540.2344 261.8781,538.5938 Q260.5656,536.9375 260.5656,533.8125 Q260.5656,530.6875 261.8781,529.0313 Q263.2063,527.375 265.7063,527.375 Q266.4094,527.375 267.05,527.5313 Q267.7063,527.6875 268.2688,527.9844 L268.2688,530.7031 Q267.6438,530.125 267.05,529.8594 Q266.4563,529.5781 265.8313,529.5781 Q264.4875,529.5781 263.8,530.6563 Q263.1125,531.7188 263.1125,533.8125 Q263.1125,535.9063 263.8,536.9844 Q264.4875,538.0469 265.8313,538.0469 Q266.4563,538.0469 267.05,537.7813 Q267.6438,537.5 268.2688,536.9219 L268.2688,539.6406 Z "/><text fill="#000000" font-family="sans-serif" font-size="12" lengthAdjust="spacingAndGlyphs" textLength="51" x="284.7" y="538.1543">Provider</text><line style="stroke: #A80036; stroke-width: 1.5;" x1="227" x2="362" y1="550" y2="550"/><text fill="#000000" font-family="sans-serif" font-size="11" lengthAdjust="spacingAndGlyphs" textLength="74" x="232" y="564.2104">name: String</text><text fill="#000000" font-family="sans-serif" font-size="11" lengthAdjust="spacingAndGlyphs" textLength="67" x="232" y="577.0151">logoUrl: Image</text><text fill="#000000" font-family="sans-serif" font-size="11" lengthAdjust="spacingAndGlyphs" textLength="105" x="232" y="589.8198">description: String</text><text fill="#000000" font-family="sans-serif" font-size="11" lengthAdjust="spacingAndGlyphs" textLength="125" x="232" y="602.6245">externalLinks: String[]</text><line style="stroke: #A80036; stroke-width: 1.5;" x1="227" x2="362" y1="609.2188" y2="609.2188"/><!--class RestApi--><rect fill="#FEFECE" filter="url(#fc5nuasp37unl)" height="86.4141" id="RestApi" style="stroke: #A80036; stroke-width: 1.5;" width="206" x="398.5" y="524.5"/><ellipse cx="473.75" cy="540.5" fill="#ADD1B2" rx="11" ry="11" style="stroke: #A80036; stroke-width: 1.0;"/><path d="M476.7188,546.1406 Q476.1406,546.4375 475.5,546.5781 Q474.8594,546.7344 474.1563,546.7344 Q471.6563,546.7344 470.3281,545.0938 Q469.0156,543.4375 469.0156,540.3125 Q469.0156,537.1875 470.3281,535.5313 Q471.6563,533.875 474.1563,533.875 Q474.8594,533.875 475.5,534.0313 Q476.1563,534.1875 476.7188,534.4844 L476.7188,537.2031 Q476.0938,536.625 475.5,536.3594 Q474.9063,536.0781 474.2813,536.0781 Q472.9375,536.0781 472.25,537.1563 Q471.5625,538.2188 471.5625,540.3125 Q471.5625,542.4063 472.25,543.4844 Q472.9375,544.5469 474.2813,544.5469 Q474.9063,544.5469 475.5,544.2813 Q476.0938,544 476.7188,543.4219 L476.7188,546.1406 Z "/><text fill="#000000" font-family="sans-serif" font-size="12" lengthAdjust="spacingAndGlyphs" textLength="47" x="494.25" y="544.6543">RestApi</text><line style="stroke: #A80036; stroke-width: 1.5;" x1="399.5" x2="603.5" y1="556.5" y2="556.5"/><text fill="#000000" font-family="sans-serif" font-size="11" lengthAdjust="spacingAndGlyphs" textLength="74" x="404.5" y="570.7104">name: String</text><text fill="#000000" font-family="sans-serif" font-size="11" lengthAdjust="spacingAndGlyphs" textLength="67" x="404.5" y="583.5151">logo: Image</text><text fill="#000000" font-family="sans-serif" font-size="11" lengthAdjust="spacingAndGlyphs" textLength="194" x="404.5" y="596.3198">businessModels: BusinessModel[]</text><line style="stroke: #A80036; stroke-width: 1.5;" x1="399.5" x2="603.5" y1="602.9141" y2="602.9141"/><!--class Version--><rect fill="#FEFECE" filter="url(#fc5nuasp37unl)" height="124.8281" id="Version" style="stroke: #A80036; stroke-width: 1.5;" width="211" x="640" y="505"/><ellipse cx="717.75" cy="521" fill="#ADD1B2" rx="11" ry="11" style="stroke: #A80036; stroke-width: 1.0;"/><path d="M720.7188,526.6406 Q720.1406,526.9375 719.5,527.0781 Q718.8594,527.2344 718.1563,527.2344 Q715.6563,527.2344 714.3281,525.5938 Q713.0156,523.9375 713.0156,520.8125 Q713.0156,517.6875 714.3281,516.0313 Q715.6563,514.375 718.1563,514.375 Q718.8594,514.375 719.5,514.5313 Q720.1563,514.6875 720.7188,514.9844 L720.7188,517.7031 Q720.0938,517.125 719.5,516.8594 Q718.9063,516.5781 718.2813,516.5781 Q716.9375,516.5781 716.25,517.6563 Q715.5625,518.7188 715.5625,520.8125 Q715.5625,522.9063 716.25,523.9844 Q716.9375,525.0469 718.2813,525.0469 Q718.9063,525.0469 719.5,524.7813 Q720.0938,524.5 720.7188,523.9219 L720.7188,526.6406 Z "/><text fill="#000000" font-family="sans-serif" font-size="12" lengthAdjust="spacingAndGlyphs" textLength="47" x="738.25" y="525.1543">Version</text><line style="stroke: #A80036; stroke-width: 1.5;" x1="641" x2="850" y1="537" y2="537"/><text fill="#000000" font-family="sans-serif" font-size="11" lengthAdjust="spacingAndGlyphs" textLength="146" x="646" y="551.2104">number: String // Semver</text><text fill="#000000" font-family="sans-serif" font-size="11" lengthAdjust="spacingAndGlyphs" textLength="105" x="646" y="564.0151">description: String</text><text fill="#000000" font-family="sans-serif" font-size="11" lengthAdjust="spacingAndGlyphs" textLength="169" x="646" y="576.8198">originalDocumentation: String</text><text fill="#000000" font-family="sans-serif" font-size="11" lengthAdjust="spacingAndGlyphs" textLength="199" x="646" y="589.6245">oasDocumentation: Object //OASv3</text><text fill="#000000" font-family="sans-serif" font-size="11" lengthAdjust="spacingAndGlyphs" textLength="150" x="646" y="602.4292">metadata: Object //WebAPI</text><text fill="#000000" font-family="sans-serif" font-size="11" lengthAdjust="spacingAndGlyphs" textLength="163" x="646" y="615.2339">deprecated: Boolean = false</text><line style="stroke: #A80036; stroke-width: 1.5;" x1="641" x2="850" y1="621.8281" y2="621.8281"/><!--class User--><rect fill="#FEFECE" filter="url(#fc5nuasp37unl)" height="86.4141" id="User" style="stroke: #A80036; stroke-width: 1.5;" width="112" x="445.5" y="27.5"/><ellipse cx="483.45" cy="43.5" fill="#ADD1B2" rx="11" ry="11" style="stroke: #A80036; stroke-width: 1.0;"/><path d="M486.4188,49.1406 Q485.8406,49.4375 485.2,49.5781 Q484.5594,49.7344 483.8563,49.7344 Q481.3563,49.7344 480.0281,48.0938 Q478.7156,46.4375 478.7156,43.3125 Q478.7156,40.1875 480.0281,38.5313 Q481.3563,36.875 483.8563,36.875 Q484.5594,36.875 485.2,37.0313 Q485.8563,37.1875 486.4188,37.4844 L486.4188,40.2031 Q485.7938,39.625 485.2,39.3594 Q484.6063,39.0781 483.9813,39.0781 Q482.6375,39.0781 481.95,40.1563 Q481.2625,41.2188 481.2625,43.3125 Q481.2625,45.4063 481.95,46.4844 Q482.6375,47.5469 483.9813,47.5469 Q484.6063,47.5469 485.2,47.2813 Q485.7938,47 486.4188,46.4219 L486.4188,49.1406 Z "/><text fill="#000000" font-family="sans-serif" font-size="12" lengthAdjust="spacingAndGlyphs" textLength="29" x="502.55" y="47.6543">User</text><line style="stroke: #A80036; stroke-width: 1.5;" x1="446.5" x2="556.5" y1="59.5" y2="59.5"/><text fill="#000000" font-family="sans-serif" font-size="11" lengthAdjust="spacingAndGlyphs" textLength="100" x="451.5" y="73.7104">username: String</text><text fill="#000000" font-family="sans-serif" font-size="11" lengthAdjust="spacingAndGlyphs" textLength="73" x="451.5" y="86.5151">email: String</text><text fill="#000000" font-family="sans-serif" font-size="11" lengthAdjust="spacingAndGlyphs" textLength="98" x="451.5" y="99.3198">password: String</text><line style="stroke: #A80036; stroke-width: 1.5;" x1="446.5" x2="556.5" y1="105.9141" y2="105.9141"/><!--class Contributor--><rect fill="#FEFECE" filter="url(#fc5nuasp37unl)" height="73.6094" id="Contributor" style="stroke: #A80036; stroke-width: 1.5;" width="153" x="328" y="213"/><ellipse cx="365.5" cy="229" fill="#ADD1B2" rx="11" ry="11" style="stroke: #A80036; stroke-width: 1.0;"/><path d="M368.4688,234.6406 Q367.8906,234.9375 367.25,235.0781 Q366.6094,235.2344 365.9063,235.2344 Q363.4063,235.2344 362.0781,233.5938 Q360.7656,231.9375 360.7656,228.8125 Q360.7656,225.6875 362.0781,224.0313 Q363.4063,222.375 365.9063,222.375 Q366.6094,222.375 367.25,222.5313 Q367.9063,222.6875 368.4688,222.9844 L368.4688,225.7031 Q367.8438,225.125 367.25,224.8594 Q366.6563,224.5781 366.0313,224.5781 Q364.6875,224.5781 364,225.6563 Q363.3125,226.7188 363.3125,228.8125 Q363.3125,230.9063 364,231.9844 Q364.6875,233.0469 366.0313,233.0469 Q366.6563,233.0469 367.25,232.7813 Q367.8438,232.5 368.4688,231.9219 L368.4688,234.6406 Z "/><text fill="#000000" font-family="sans-serif" font-size="12" lengthAdjust="spacingAndGlyphs" textLength="71" x="384.5" y="233.1543">Contributor</text><line style="stroke: #A80036; stroke-width: 1.5;" x1="329" x2="480" y1="245" y2="245"/><text fill="#000000" font-family="sans-serif" font-size="11" lengthAdjust="spacingAndGlyphs" textLength="105" x="334" y="259.2104">description: String</text><text fill="#000000" font-family="sans-serif" font-size="11" lengthAdjust="spacingAndGlyphs" textLength="141" x="334" y="272.0151">banned: Boolean = false</text><line style="stroke: #A80036; stroke-width: 1.5;" x1="329" x2="480" y1="278.6094" y2="278.6094"/><!--class Administrator--><rect fill="#FEFECE" filter="url(#fc5nuasp37unl)" height="48" id="Administrator" style="stroke: #A80036; stroke-width: 1.5;" width="116" x="542.5" y="226"/><ellipse cx="557.5" cy="242" fill="#ADD1B2" rx="11" ry="11" style="stroke: #A80036; stroke-width: 1.0;"/><path d="M560.4688,247.6406 Q559.8906,247.9375 559.25,248.0781 Q558.6094,248.2344 557.9063,248.2344 Q555.4063,248.2344 554.0781,246.5938 Q552.7656,244.9375 552.7656,241.8125 Q552.7656,238.6875 554.0781,237.0313 Q555.4063,235.375 557.9063,235.375 Q558.6094,235.375 559.25,235.5313 Q559.9063,235.6875 560.4688,235.9844 L560.4688,238.7031 Q559.8438,238.125 559.25,237.8594 Q558.6563,237.5781 558.0313,237.5781 Q556.6875,237.5781 556,238.6563 Q555.3125,239.7188 555.3125,241.8125 Q555.3125,243.9063 556,244.9844 Q556.6875,246.0469 558.0313,246.0469 Q558.6563,246.0469 559.25,245.7813 Q559.8438,245.5 560.4688,244.9219 L560.4688,247.6406 Z "/><text fill="#000000" font-family="sans-serif" font-size="12" lengthAdjust="spacingAndGlyphs" textLength="84" x="571.5" y="246.1543">Administrator</text><line style="stroke: #A80036; stroke-width: 1.5;" x1="543.5" x2="657.5" y1="258" y2="258"/><line style="stroke: #A80036; stroke-width: 1.5;" x1="543.5" x2="657.5" y1="266" y2="266"/><!--class ContributionHistory--><rect fill="#FEFECE" filter="url(#fc5nuasp37unl)" height="112.0234" id="ContributionHistory" style="stroke: #A80036; stroke-width: 1.5;" width="287" x="6" y="194"/><ellipse cx="85.25" cy="210" fill="#ADD1B2" rx="11" ry="11" style="stroke: #A80036; stroke-width: 1.0;"/><path d="M88.2188,215.6406 Q87.6406,215.9375 87,216.0781 Q86.3594,216.2344 85.6563,216.2344 Q83.1563,216.2344 81.8281,214.5938 Q80.5156,212.9375 80.5156,209.8125 Q80.5156,206.6875 81.8281,205.0313 Q83.1563,203.375 85.6563,203.375 Q86.3594,203.375 87,203.5313 Q87.6563,203.6875 88.2188,203.9844 L88.2188,206.7031 Q87.5938,206.125 87,205.8594 Q86.4063,205.5781 85.7813,205.5781 Q84.4375,205.5781 83.75,206.6563 Q83.0625,207.7188 83.0625,209.8125 Q83.0625,211.9063 83.75,212.9844 Q84.4375,214.0469 85.7813,214.0469 Q86.4063,214.0469 87,213.7813 Q87.5938,213.5 88.2188,212.9219 L88.2188,215.6406 Z "/><text fill="#000000" font-family="sans-serif" font-size="12" lengthAdjust="spacingAndGlyphs" textLength="120" x="105.75" y="214.1543">ContributionHistory</text><line style="stroke: #A80036; stroke-width: 1.5;" x1="7" x2="292" y1="226" y2="226"/><text fill="#000000" font-family="sans-serif" font-size="11" lengthAdjust="spacingAndGlyphs" textLength="125" x="12" y="240.2104">contribution_id: String</text><text fill="#000000" font-family="sans-serif" font-size="11" lengthAdjust="spacingAndGlyphs" textLength="120" x="12" y="253.0151">contributor_id: String</text><text fill="#000000" font-family="sans-serif" font-size="11" lengthAdjust="spacingAndGlyphs" textLength="87" x="12" y="265.8198">date: DateTime</text><text fill="#000000" font-family="sans-serif" font-size="11" lengthAdjust="spacingAndGlyphs" textLength="174" x="12" y="278.6245">action: ['ADD', 'EDIT', 'DELETE']</text><text fill="#000000" font-family="sans-serif" font-size="11" lengthAdjust="spacingAndGlyphs" textLength="275" x="12" y="291.4292">typeContribution: ['Provider', 'RestAPI', 'Version']</text><line style="stroke: #A80036; stroke-width: 1.5;" x1="7" x2="292" y1="298.0234" y2="298.0234"/><!--class Contribution--><rect fill="#FEFECE" filter="url(#fc5nuasp37unl)" height="60.8047" id="Contribution" style="stroke: #A80036; stroke-width: 1.5;" width="171" x="416" y="383"/><ellipse cx="458.9" cy="399" fill="#ADD1B2" rx="11" ry="11" style="stroke: #A80036; stroke-width: 1.0;"/><path d="M461.8688,404.6406 Q461.2906,404.9375 460.65,405.0781 Q460.0094,405.2344 459.3063,405.2344 Q456.8063,405.2344 455.4781,403.5938 Q454.1656,401.9375 454.1656,398.8125 Q454.1656,395.6875 455.4781,394.0313 Q456.8063,392.375 459.3063,392.375 Q460.0094,392.375 460.65,392.5313 Q461.3063,392.6875 461.8688,392.9844 L461.8688,395.7031 Q461.2438,395.125 460.65,394.8594 Q460.0563,394.5781 459.4313,394.5781 Q458.0875,394.5781 457.4,395.6563 Q456.7125,396.7188 456.7125,398.8125 Q456.7125,400.9063 457.4,401.9844 Q458.0875,403.0469 459.4313,403.0469 Q460.0563,403.0469 460.65,402.7813 Q461.2438,402.5 461.8688,401.9219 L461.8688,404.6406 Z "/><text fill="#000000" font-family="sans-serif" font-size="12" lengthAdjust="spacingAndGlyphs" textLength="77" x="479.1" y="403.1543">Contribution</text><line style="stroke: #A80036; stroke-width: 1.5;" x1="417" x2="586" y1="415" y2="415"/><text fill="#000000" font-family="sans-serif" font-size="11" lengthAdjust="spacingAndGlyphs" textLength="159" x="422" y="429.2104">blacklisted: Boolean = false</text><line style="stroke: #A80036; stroke-width: 1.5;" x1="417" x2="586" y1="435.8047" y2="435.8047"/><!--reverse link RestApi to Version--><path d="M617.991,567.5 C625.256,567.5 632.521,567.5 639.786,567.5 " fill="none" id="RestApi&lt;-Version" style="stroke: #A80036; stroke-width: 1.0;"/><polygon fill="#A80036" points="604.9141,567.5,610.9141,571.5,616.9141,567.5,610.9141,563.5,604.9141,567.5" style="stroke: #A80036; stroke-width: 1.0;"/><text fill="#000000" font-family="sans-serif" font-size="13" lengthAdjust="spacingAndGlyphs" textLength="23" x="608.9107" y="564.0732">0..*</text><!--link Provider to RestApi--><path d="M363.2305,567.5 C374.933,567.5 386.6355,567.5 398.338,567.5 " fill="none" id="Provider-RestApi" style="stroke: #A80036; stroke-width: 1.0;"/><text fill="#000000" font-family="sans-serif" font-size="13" lengthAdjust="spacingAndGlyphs" textLength="23" x="367.6341" y="564.0535">0..*</text><!--reverse link User to Administrator--><path d="M535.2663,131.7226 C553.1083,164.0726 573.994,201.9412 587.2335,225.9461 " fill="none" id="User&lt;-Administrator" style="stroke: #A80036; stroke-width: 1.0;"/><polygon fill="none" points="528.9946,134.8456,525.4651,113.9519,541.2537,128.0843,528.9946,134.8456" style="stroke: #A80036; stroke-width: 1.0;"/><!--reverse link User to Contributor--><path d="M468.3662,131.8145 C453.8438,158.6885 437.2715,189.3558 424.6482,212.7155 " fill="none" id="User&lt;-Contributor" style="stroke: #A80036; stroke-width: 1.0;"/><polygon fill="none" points="462.3523,128.2193,478.019,113.9519,474.669,134.8751,462.3523,128.2193" style="stroke: #A80036; stroke-width: 1.0;"/><!--link Administrator to Contribution--><path d="M589.9769,274.025 C580.2577,295.3664 564.8836,327.0983 548.5,353 C543.0008,361.6939 536.5344,370.6569 530.1872,378.9328 " fill="none" id="Administrator-&gt;Contribution" style="stroke: #A80036; stroke-width: 1.0;"/><polygon fill="#A80036" points="527.0856,382.9362,535.7597,378.2714,530.1479,378.9837,529.4356,373.3718,527.0856,382.9362" style="stroke: #A80036; stroke-width: 1.0;"/><text fill="#000000" font-family="sans-serif" font-size="13" lengthAdjust="spacingAndGlyphs" textLength="52" x="558.5" y="349.0669">Blacklist</text><!--reverse link Contributor to Administrator--><path d="M486.4065,250 C505.232,250 524.8719,250 542.4446,250 " fill="none" id="Contributor&lt;-Administrator" style="stroke: #A80036; stroke-width: 1.0;"/><polygon fill="#A80036" points="481.1208,250,490.1208,254,486.1208,250,490.1208,246,481.1208,250" style="stroke: #A80036; stroke-width: 1.0;"/><text fill="#000000" font-family="sans-serif" font-size="13" lengthAdjust="spacingAndGlyphs" textLength="25" x="499.25" y="243.0669">Ban</text><!--link Contributor to Contribution--><path d="M411.6366,287.2166 C416.7057,307.7124 424.8968,332.9768 437.5,353 C443.3795,362.341 451.0321,371.2246 458.9903,379.1661 " fill="none" id="Contributor-&gt;Contribution" style="stroke: #A80036; stroke-width: 1.0;"/><polygon fill="#A80036" points="462.9152,382.9868,459.2565,373.8427,459.3325,379.4991,453.6761,379.5751,462.9152,382.9868" style="stroke: #A80036; stroke-width: 1.0;"/><text fill="#000000" font-family="sans-serif" font-size="13" lengthAdjust="spacingAndGlyphs" textLength="105" x="438.5" y="349.0669">Add, edit, delete</text><!--reverse link Contribution to Provider--><path d="M443.9801,456.2926 C418.2597,475.4276 387.7844,498.1 361.082,517.9656 " fill="none" id="Contribution&lt;-Provider" style="stroke: #A80036; stroke-width: 1.0;"/><polygon fill="none" points="439.8833,450.6158,460.108,444.2941,448.2398,461.8482,439.8833,450.6158" style="stroke: #A80036; stroke-width: 1.0;"/><!--reverse link Contribution to RestApi--><path d="M501.5,464.4163 C501.5,483.7764 501.5,505.6311 501.5,524.219 " fill="none" id="Contribution&lt;-RestApi" style="stroke: #A80036; stroke-width: 1.0;"/><polygon fill="none" points="494.5001,464.2941,501.5,444.2941,508.5001,464.294,494.5001,464.2941" style="stroke: #A80036; stroke-width: 1.0;"/><!--reverse link Contribution to Version--><path d="M567.0006,454.8406 C591.3953,470.2372 619.658,488.0751 646.3984,504.9523 " fill="none" id="Contribution&lt;-Version" style="stroke: #A80036; stroke-width: 1.0;"/><polygon fill="none" points="563.1752,460.7038,549.9983,444.1096,570.6475,448.8647,563.1752,460.7038" style="stroke: #A80036; stroke-width: 1.0;"/><!--link ContributionHistory to Contributor--><path d="M293.4355,250 C300.4867,250 307.5378,250 314.5889,250 " fill="none" id="ContributionHistory-&gt;Contributor" style="stroke: #A80036; stroke-width: 1.0;"/><polygon fill="#A80036" points="327.7093,250,321.7093,246,315.7093,250,321.7093,254,327.7093,250" style="stroke: #A80036; stroke-width: 1.0;"/><text fill="#000000" font-family="sans-serif" font-size="13" lengthAdjust="spacingAndGlyphs" textLength="23" x="300.9644" y="246.7063">0..*</text><!--
@startuml "DC APIs Repositorio"
enum BusinessModel {
    Free
    FreeWithLimitations
    FreeTrialVersion
    FlatRateAllInclusive
    FlatRatesWithLimitations
    Billing
}

class Provider {
    name: String
    logoUrl: Image
    description: String
    externalLinks: String[]
}

class RestApi {
   name: String
   logoUrl: Image
   businessModels: BusinessModel[]
}

class Version {
    number: String // Semver
    description: String
    originalDocumentation: String
    oasDocumentation: Object //OASv3
    metadata: Object //WebAPI
    deprecated: Boolean = false
}

class User {
    username: String
    email: String
    password: String
}

class Contributor {
    description: String
    banned: Boolean = false
}

class Administrator {

}

class ContributionHistory {
    contribution_id: String
    contributor_id: String
    date: DateTime
    action: ['ADD', 'EDIT', 'DELETE']
    typeContribution: ['Provider', 'RestAPI', 'Version']
}

class Contribution {
    blacklisted: Boolean = false
}

RestApi *-right- "0..*" Version
Provider -right- "0..*" RestApi
User <|- - Administrator
User <|- - Contributor
Administrator - -> Contribution: Blacklist
Administrator -left-> Contributor: Ban
Contributor - -> Contribution: Add, edit, delete
Contribution <|- - Provider
Contribution <|- - RestApi
Contribution <|- - Version
Contributor *-left- "0..*" ContributionHistory
@enduml

PlantUML version 1.2019.09(Mon Aug 26 18:19:51 CEST 2019)
(GPL source distribution)
Java Runtime: OpenJDK Runtime Environment
JVM: OpenJDK 64-Bit Server VM
Java Version: 11.0.6+10-post-Ubuntu-1ubuntu118.04.1
Operating System: Linux
OS Version: 5.3.0-45-generic
Default Encoding: UTF-8
Language: en
Country: US
--></g></svg>