<?xml version="1.0" encoding="UTF-8" standalone="no"?><svg xmlns="http://www.w3.org/2000/svg" xmlns:xlink="http://www.w3.org/1999/xlink" contentScriptType="application/ecmascript" contentStyleType="text/css" height="602px" preserveAspectRatio="none" style="width:642px;height:602px;" version="1.1" viewBox="0 0 642 602" width="642px" zoomAndPan="magnify"><defs><filter height="300%" id="fam7kkw2zds9c" width="300%" x="-1" y="-1"><feGaussianBlur result="blurOut" stdDeviation="2.0"/><feColorMatrix in="blurOut" result="blurOut2" type="matrix" values="0 0 0 0 0 0 0 0 0 0 0 0 0 0 0 0 0 0 .4 0"/><feOffset dx="4.0" dy="4.0" in="blurOut2" result="blurOut3"/><feBlend in="SourceGraphic" in2="blurOut3" mode="normal"/></filter></defs><g><!--class BusinessModel--><rect fill="#FEFECE" filter="url(#fam7kkw2zds9c)" height="124.8281" id="BusinessModel" style="stroke: #A80036; stroke-width: 1.5;" width="149" x="373" y="8"/><ellipse cx="398.8" cy="24" fill="#EB937F" rx="11" ry="11" style="stroke: #A80036; stroke-width: 1.0;"/><path d="M402.9094,30 L395.1906,30 L395.1906,17.6094 L402.9094,17.6094 L402.9094,19.7656 L397.6438,19.7656 L397.6438,22.4375 L402.4094,22.4375 L402.4094,24.5938 L397.6438,24.5938 L397.6438,27.8438 L402.9094,27.8438 L402.9094,30 Z "/><text fill="#000000" font-family="sans-serif" font-size="12" lengthAdjust="spacingAndGlyphs" textLength="93" x="415.2" y="28.1543">BusinessModel</text><line style="stroke: #A80036; stroke-width: 1.5;" x1="374" x2="521" y1="40" y2="40"/><text fill="#000000" font-family="sans-serif" font-size="11" lengthAdjust="spacingAndGlyphs" textLength="25" x="379" y="54.2104">Free</text><text fill="#000000" font-family="sans-serif" font-size="11" lengthAdjust="spacingAndGlyphs" textLength="110" x="379" y="67.0151">FreeWithLimitations</text><text fill="#000000" font-family="sans-serif" font-size="11" lengthAdjust="spacingAndGlyphs" textLength="93" x="379" y="79.8198">FreeTrialVersion</text><text fill="#000000" font-family="sans-serif" font-size="11" lengthAdjust="spacingAndGlyphs" textLength="107" x="379" y="92.6245">FlatRateAllInclusive</text><text fill="#000000" font-family="sans-serif" font-size="11" lengthAdjust="spacingAndGlyphs" textLength="137" x="379" y="105.4292">FlatRatesWithLimitations</text><text fill="#000000" font-family="sans-serif" font-size="11" lengthAdjust="spacingAndGlyphs" textLength="34" x="379" y="118.2339">Billing</text><line style="stroke: #A80036; stroke-width: 1.5;" x1="374" x2="521" y1="124.8281" y2="124.8281"/><!--class Provider--><rect fill="#FEFECE" filter="url(#fam7kkw2zds9c)" height="99.2188" id="Provider" style="stroke: #A80036; stroke-width: 1.5;" width="137" x="6" y="480"/><ellipse cx="45.3" cy="496" fill="#ADD1B2" rx="11" ry="11" style="stroke: #A80036; stroke-width: 1.0;"/><path d="M48.2688,501.6406 Q47.6906,501.9375 47.05,502.0781 Q46.4094,502.2344 45.7063,502.2344 Q43.2063,502.2344 41.8781,500.5938 Q40.5656,498.9375 40.5656,495.8125 Q40.5656,492.6875 41.8781,491.0313 Q43.2063,489.375 45.7063,489.375 Q46.4094,489.375 47.05,489.5313 Q47.7063,489.6875 48.2688,489.9844 L48.2688,492.7031 Q47.6438,492.125 47.05,491.8594 Q46.4563,491.5781 45.8313,491.5781 Q44.4875,491.5781 43.8,492.6563 Q43.1125,493.7188 43.1125,495.8125 Q43.1125,497.9063 43.8,498.9844 Q44.4875,500.0469 45.8313,500.0469 Q46.4563,500.0469 47.05,499.7813 Q47.6438,499.5 48.2688,498.9219 L48.2688,501.6406 Z "/><text fill="#000000" font-family="sans-serif" font-size="12" lengthAdjust="spacingAndGlyphs" textLength="51" x="64.7" y="500.1543">Provider</text><line style="stroke: #A80036; stroke-width: 1.5;" x1="7" x2="142" y1="512" y2="512"/><text fill="#000000" font-family="sans-serif" font-size="11" lengthAdjust="spacingAndGlyphs" textLength="74" x="12" y="526.2104">name: String</text><text fill="#000000" font-family="sans-serif" font-size="11" lengthAdjust="spacingAndGlyphs" textLength="67" x="12" y="539.0151">logo: Image</text><text fill="#000000" font-family="sans-serif" font-size="11" lengthAdjust="spacingAndGlyphs" textLength="105" x="12" y="551.8198">description: String</text><text fill="#000000" font-family="sans-serif" font-size="11" lengthAdjust="spacingAndGlyphs" textLength="125" x="12" y="564.6245">externalLinks: String[]</text><line style="stroke: #A80036; stroke-width: 1.5;" x1="7" x2="142" y1="571.2188" y2="571.2188"/><!--class RestApi--><rect fill="#FEFECE" filter="url(#fam7kkw2zds9c)" height="86.4141" id="RestApi" style="stroke: #A80036; stroke-width: 1.5;" width="206" x="178.5" y="486.5"/><ellipse cx="253.75" cy="502.5" fill="#ADD1B2" rx="11" ry="11" style="stroke: #A80036; stroke-width: 1.0;"/><path d="M256.7188,508.1406 Q256.1406,508.4375 255.5,508.5781 Q254.8594,508.7344 254.1563,508.7344 Q251.6563,508.7344 250.3281,507.0938 Q249.0156,505.4375 249.0156,502.3125 Q249.0156,499.1875 250.3281,497.5313 Q251.6563,495.875 254.1563,495.875 Q254.8594,495.875 255.5,496.0313 Q256.1563,496.1875 256.7188,496.4844 L256.7188,499.2031 Q256.0938,498.625 255.5,498.3594 Q254.9063,498.0781 254.2813,498.0781 Q252.9375,498.0781 252.25,499.1563 Q251.5625,500.2188 251.5625,502.3125 Q251.5625,504.4063 252.25,505.4844 Q252.9375,506.5469 254.2813,506.5469 Q254.9063,506.5469 255.5,506.2813 Q256.0938,506 256.7188,505.4219 L256.7188,508.1406 Z "/><text fill="#000000" font-family="sans-serif" font-size="12" lengthAdjust="spacingAndGlyphs" textLength="47" x="274.25" y="506.6543">RestApi</text><line style="stroke: #A80036; stroke-width: 1.5;" x1="179.5" x2="383.5" y1="518.5" y2="518.5"/><text fill="#000000" font-family="sans-serif" font-size="11" lengthAdjust="spacingAndGlyphs" textLength="74" x="184.5" y="532.7104">name: String</text><text fill="#000000" font-family="sans-serif" font-size="11" lengthAdjust="spacingAndGlyphs" textLength="67" x="184.5" y="545.5151">logo: Image</text><text fill="#000000" font-family="sans-serif" font-size="11" lengthAdjust="spacingAndGlyphs" textLength="194" x="184.5" y="558.3198">businessModels: BusinessModel[]</text><line style="stroke: #A80036; stroke-width: 1.5;" x1="179.5" x2="383.5" y1="564.9141" y2="564.9141"/><!--class Version--><rect fill="#FEFECE" filter="url(#fam7kkw2zds9c)" height="124.8281" id="Version" style="stroke: #A80036; stroke-width: 1.5;" width="211" x="420" y="467"/><ellipse cx="497.75" cy="483" fill="#ADD1B2" rx="11" ry="11" style="stroke: #A80036; stroke-width: 1.0;"/><path d="M500.7188,488.6406 Q500.1406,488.9375 499.5,489.0781 Q498.8594,489.2344 498.1563,489.2344 Q495.6563,489.2344 494.3281,487.5938 Q493.0156,485.9375 493.0156,482.8125 Q493.0156,479.6875 494.3281,478.0313 Q495.6563,476.375 498.1563,476.375 Q498.8594,476.375 499.5,476.5313 Q500.1563,476.6875 500.7188,476.9844 L500.7188,479.7031 Q500.0938,479.125 499.5,478.8594 Q498.9063,478.5781 498.2813,478.5781 Q496.9375,478.5781 496.25,479.6563 Q495.5625,480.7188 495.5625,482.8125 Q495.5625,484.9063 496.25,485.9844 Q496.9375,487.0469 498.2813,487.0469 Q498.9063,487.0469 499.5,486.7813 Q500.0938,486.5 500.7188,485.9219 L500.7188,488.6406 Z "/><text fill="#000000" font-family="sans-serif" font-size="12" lengthAdjust="spacingAndGlyphs" textLength="47" x="518.25" y="487.1543">Version</text><line style="stroke: #A80036; stroke-width: 1.5;" x1="421" x2="630" y1="499" y2="499"/><text fill="#000000" font-family="sans-serif" font-size="11" lengthAdjust="spacingAndGlyphs" textLength="146" x="426" y="513.2104">number: String // Semver</text><text fill="#000000" font-family="sans-serif" font-size="11" lengthAdjust="spacingAndGlyphs" textLength="105" x="426" y="526.0151">description: String</text><text fill="#000000" font-family="sans-serif" font-size="11" lengthAdjust="spacingAndGlyphs" textLength="169" x="426" y="538.8198">originalDocumentation: String</text><text fill="#000000" font-family="sans-serif" font-size="11" lengthAdjust="spacingAndGlyphs" textLength="199" x="426" y="551.6245">oasDocumentation: Object //OASv3</text><text fill="#000000" font-family="sans-serif" font-size="11" lengthAdjust="spacingAndGlyphs" textLength="150" x="426" y="564.4292">metadata: Object //WebAPI</text><text fill="#000000" font-family="sans-serif" font-size="11" lengthAdjust="spacingAndGlyphs" textLength="163" x="426" y="577.2339">deprecated: Boolean = false</text><line style="stroke: #A80036; stroke-width: 1.5;" x1="421" x2="630" y1="583.8281" y2="583.8281"/><!--class User--><rect fill="#FEFECE" filter="url(#fam7kkw2zds9c)" height="86.4141" id="User" style="stroke: #A80036; stroke-width: 1.5;" width="112" x="225.5" y="27.5"/><ellipse cx="263.45" cy="43.5" fill="#ADD1B2" rx="11" ry="11" style="stroke: #A80036; stroke-width: 1.0;"/><path d="M266.4188,49.1406 Q265.8406,49.4375 265.2,49.5781 Q264.5594,49.7344 263.8563,49.7344 Q261.3563,49.7344 260.0281,48.0938 Q258.7156,46.4375 258.7156,43.3125 Q258.7156,40.1875 260.0281,38.5313 Q261.3563,36.875 263.8563,36.875 Q264.5594,36.875 265.2,37.0313 Q265.8563,37.1875 266.4188,37.4844 L266.4188,40.2031 Q265.7938,39.625 265.2,39.3594 Q264.6063,39.0781 263.9813,39.0781 Q262.6375,39.0781 261.95,40.1563 Q261.2625,41.2188 261.2625,43.3125 Q261.2625,45.4063 261.95,46.4844 Q262.6375,47.5469 263.9813,47.5469 Q264.6063,47.5469 265.2,47.2813 Q265.7938,47 266.4188,46.4219 L266.4188,49.1406 Z "/><text fill="#000000" font-family="sans-serif" font-size="12" lengthAdjust="spacingAndGlyphs" textLength="29" x="282.55" y="47.6543">User</text><line style="stroke: #A80036; stroke-width: 1.5;" x1="226.5" x2="336.5" y1="59.5" y2="59.5"/><text fill="#000000" font-family="sans-serif" font-size="11" lengthAdjust="spacingAndGlyphs" textLength="100" x="231.5" y="73.7104">username: String</text><text fill="#000000" font-family="sans-serif" font-size="11" lengthAdjust="spacingAndGlyphs" textLength="73" x="231.5" y="86.5151">email: String</text><text fill="#000000" font-family="sans-serif" font-size="11" lengthAdjust="spacingAndGlyphs" textLength="98" x="231.5" y="99.3198">password: String</text><line style="stroke: #A80036; stroke-width: 1.5;" x1="226.5" x2="336.5" y1="105.9141" y2="105.9141"/><!--class Explorer--><rect fill="#FEFECE" filter="url(#fam7kkw2zds9c)" height="73.6094" id="Explorer" style="stroke: #A80036; stroke-width: 1.5;" width="153" x="108" y="194"/><ellipse cx="154.75" cy="210" fill="#ADD1B2" rx="11" ry="11" style="stroke: #A80036; stroke-width: 1.0;"/><path d="M157.7188,215.6406 Q157.1406,215.9375 156.5,216.0781 Q155.8594,216.2344 155.1563,216.2344 Q152.6563,216.2344 151.3281,214.5938 Q150.0156,212.9375 150.0156,209.8125 Q150.0156,206.6875 151.3281,205.0313 Q152.6563,203.375 155.1563,203.375 Q155.8594,203.375 156.5,203.5313 Q157.1563,203.6875 157.7188,203.9844 L157.7188,206.7031 Q157.0938,206.125 156.5,205.8594 Q155.9063,205.5781 155.2813,205.5781 Q153.9375,205.5781 153.25,206.6563 Q152.5625,207.7188 152.5625,209.8125 Q152.5625,211.9063 153.25,212.9844 Q153.9375,214.0469 155.2813,214.0469 Q155.9063,214.0469 156.5,213.7813 Q157.0938,213.5 157.7188,212.9219 L157.7188,215.6406 Z "/><text fill="#000000" font-family="sans-serif" font-size="12" lengthAdjust="spacingAndGlyphs" textLength="51" x="175.25" y="214.1543">Explorer</text><line style="stroke: #A80036; stroke-width: 1.5;" x1="109" x2="260" y1="226" y2="226"/><text fill="#000000" font-family="sans-serif" font-size="11" lengthAdjust="spacingAndGlyphs" textLength="105" x="114" y="240.2104">description: String</text><text fill="#000000" font-family="sans-serif" font-size="11" lengthAdjust="spacingAndGlyphs" textLength="141" x="114" y="253.0151">banned: Boolean = false</text><line style="stroke: #A80036; stroke-width: 1.5;" x1="109" x2="260" y1="259.6094" y2="259.6094"/><!--class Administrator--><rect fill="#FEFECE" filter="url(#fam7kkw2zds9c)" height="48" id="Administrator" style="stroke: #A80036; stroke-width: 1.5;" width="116" x="322.5" y="207"/><ellipse cx="337.5" cy="223" fill="#ADD1B2" rx="11" ry="11" style="stroke: #A80036; stroke-width: 1.0;"/><path d="M340.4688,228.6406 Q339.8906,228.9375 339.25,229.0781 Q338.6094,229.2344 337.9063,229.2344 Q335.4063,229.2344 334.0781,227.5938 Q332.7656,225.9375 332.7656,222.8125 Q332.7656,219.6875 334.0781,218.0313 Q335.4063,216.375 337.9063,216.375 Q338.6094,216.375 339.25,216.5313 Q339.9063,216.6875 340.4688,216.9844 L340.4688,219.7031 Q339.8438,219.125 339.25,218.8594 Q338.6563,218.5781 338.0313,218.5781 Q336.6875,218.5781 336,219.6563 Q335.3125,220.7188 335.3125,222.8125 Q335.3125,224.9063 336,225.9844 Q336.6875,227.0469 338.0313,227.0469 Q338.6563,227.0469 339.25,226.7813 Q339.8438,226.5 340.4688,225.9219 L340.4688,228.6406 Z "/><text fill="#000000" font-family="sans-serif" font-size="12" lengthAdjust="spacingAndGlyphs" textLength="84" x="351.5" y="227.1543">Administrator</text><line style="stroke: #A80036; stroke-width: 1.5;" x1="323.5" x2="437.5" y1="239" y2="239"/><line style="stroke: #A80036; stroke-width: 1.5;" x1="323.5" x2="437.5" y1="247" y2="247"/><!--class Contribution--><rect fill="#FEFECE" filter="url(#fam7kkw2zds9c)" height="60.8047" id="Contribution" style="stroke: #A80036; stroke-width: 1.5;" width="171" x="196" y="345"/><ellipse cx="238.9" cy="361" fill="#ADD1B2" rx="11" ry="11" style="stroke: #A80036; stroke-width: 1.0;"/><path d="M241.8688,366.6406 Q241.2906,366.9375 240.65,367.0781 Q240.0094,367.2344 239.3063,367.2344 Q236.8063,367.2344 235.4781,365.5938 Q234.1656,363.9375 234.1656,360.8125 Q234.1656,357.6875 235.4781,356.0313 Q236.8063,354.375 239.3063,354.375 Q240.0094,354.375 240.65,354.5313 Q241.3063,354.6875 241.8688,354.9844 L241.8688,357.7031 Q241.2438,357.125 240.65,356.8594 Q240.0563,356.5781 239.4313,356.5781 Q238.0875,356.5781 237.4,357.6563 Q236.7125,358.7188 236.7125,360.8125 Q236.7125,362.9063 237.4,363.9844 Q238.0875,365.0469 239.4313,365.0469 Q240.0563,365.0469 240.65,364.7813 Q241.2438,364.5 241.8688,363.9219 L241.8688,366.6406 Z "/><text fill="#000000" font-family="sans-serif" font-size="12" lengthAdjust="spacingAndGlyphs" textLength="77" x="259.1" y="365.1543">Contribution</text><line style="stroke: #A80036; stroke-width: 1.5;" x1="197" x2="366" y1="377" y2="377"/><text fill="#000000" font-family="sans-serif" font-size="11" lengthAdjust="spacingAndGlyphs" textLength="159" x="202" y="391.2104">blacklisted: Boolean = false</text><line style="stroke: #A80036; stroke-width: 1.5;" x1="197" x2="366" y1="397.8047" y2="397.8047"/><!--reverse link RestApi to Version--><path d="M397.991,529.5 C405.256,529.5 412.521,529.5 419.786,529.5 " fill="none" id="RestApi&lt;-Version" style="stroke: #A80036; stroke-width: 1.0;"/><polygon fill="#A80036" points="384.9141,529.5,390.9141,533.5,396.9141,529.5,390.9141,525.5,384.9141,529.5" style="stroke: #A80036; stroke-width: 1.0;"/><text fill="#000000" font-family="sans-serif" font-size="13" lengthAdjust="spacingAndGlyphs" textLength="23" x="388.9107" y="526.0732">0..*</text><!--reverse link Provider to RestApi--><path d="M156.3958,529.5 C163.7098,529.5 171.0239,529.5 178.338,529.5 " fill="none" id="Provider&lt;-RestApi" style="stroke: #A80036; stroke-width: 1.0;"/><polygon fill="#FFFFFF" points="143.2305,529.5,149.2305,533.5,155.2305,529.5,149.2305,525.5,143.2305,529.5" style="stroke: #A80036; stroke-width: 1.0;"/><text fill="#000000" font-family="sans-serif" font-size="13" lengthAdjust="spacingAndGlyphs" textLength="23" x="147.6341" y="526.0535">0..*</text><!--reverse link User to Administrator--><path d="M318.6531,130.7331 C334.9585,157.1675 353.1731,186.6974 365.5866,206.8222 " fill="none" id="User&lt;-Administrator" style="stroke: #A80036; stroke-width: 1.0;"/><polygon fill="none" points="312.5721,134.2082,308.0302,113.5111,324.4877,126.8584,312.5721,134.2082" style="stroke: #A80036; stroke-width: 1.0;"/><!--reverse link User to Explorer--><path d="M245.1074,130.7166 C232.2889,151.9266 218.2649,175.1312 206.9384,193.8725 " fill="none" id="User&lt;-Explorer" style="stroke: #A80036; stroke-width: 1.0;"/><polygon fill="none" points="239.1701,127.0072,255.5058,113.5111,251.1519,134.2486,239.1701,127.0072" style="stroke: #A80036; stroke-width: 1.0;"/><!--link Administrator to Contribution--><path d="M366.3696,255.332 C356.2675,272.3414 342.1064,295.4235 328.5,315 C322.5636,323.541 315.8682,332.5096 309.4314,340.8475 " fill="none" id="Administrator-&gt;Contribution" style="stroke: #A80036; stroke-width: 1.0;"/><polygon fill="#A80036" points="306.2968,344.8853,314.9755,340.229,309.3629,340.9358,308.6562,335.3232,306.2968,344.8853" style="stroke: #A80036; stroke-width: 1.0;"/><text fill="#000000" font-family="sans-serif" font-size="13" lengthAdjust="spacingAndGlyphs" textLength="52" x="339.5" y="311.0669">Blacklist</text><!--reverse link Explorer to Administrator--><path d="M266.4065,231 C285.232,231 304.8719,231 322.4446,231 " fill="none" id="Explorer&lt;-Administrator" style="stroke: #A80036; stroke-width: 1.0;"/><polygon fill="#A80036" points="261.1208,231,270.1208,235,266.1208,231,270.1208,227,261.1208,231" style="stroke: #A80036; stroke-width: 1.0;"/><text fill="#000000" font-family="sans-serif" font-size="13" lengthAdjust="spacingAndGlyphs" textLength="25" x="279.25" y="224.0669">Ban</text><!--link Explorer to Contribution--><path d="M195.1929,268.2821 C200.5414,283.5168 207.9427,300.8461 217.5,315 C223.7502,324.2562 231.6443,333.1558 239.7353,341.1489 " fill="none" id="Explorer-&gt;Contribution" style="stroke: #A80036; stroke-width: 1.0;"/><polygon fill="#A80036" points="243.7168,344.9975,240.0258,335.8664,240.1218,341.5225,234.4657,341.6185,243.7168,344.9975" style="stroke: #A80036; stroke-width: 1.0;"/><text fill="#000000" font-family="sans-serif" font-size="13" lengthAdjust="spacingAndGlyphs" textLength="105" x="218.5" y="311.0669">Add, edit, delete</text><!--reverse link Contribution to Provider--><path d="M223.9801,418.2926 C198.2597,437.4276 167.7844,460.1 141.082,479.9656 " fill="none" id="Contribution&lt;-Provider" style="stroke: #A80036; stroke-width: 1.0;"/><polygon fill="none" points="219.8833,412.6158,240.108,406.2941,228.2398,423.8482,219.8833,412.6158" style="stroke: #A80036; stroke-width: 1.0;"/><!--reverse link Contribution to RestApi--><path d="M281.5,426.4163 C281.5,445.7764 281.5,467.6311 281.5,486.219 " fill="none" id="Contribution&lt;-RestApi" style="stroke: #A80036; stroke-width: 1.0;"/><polygon fill="none" points="274.5001,426.2941,281.5,406.2941,288.5001,426.294,274.5001,426.2941" style="stroke: #A80036; stroke-width: 1.0;"/><!--reverse link Contribution to Version--><path d="M347.0006,416.8406 C371.3953,432.2372 399.658,450.0751 426.3984,466.9523 " fill="none" id="Contribution&lt;-Version" style="stroke: #A80036; stroke-width: 1.0;"/><polygon fill="none" points="343.1752,422.7038,329.9983,406.1096,350.6475,410.8647,343.1752,422.7038" style="stroke: #A80036; stroke-width: 1.0;"/><!--
@startuml "DC APIs Repositorio"
enum BusinessModel {
    Free
    FreeWithLimitations
    FreeTrialVersion
    FlatRateAllInclusive
    FlatRatesWithLimitations
    Billing
}

class Provider {
    name: String
    logo: Image
    description: String
    externalLinks: String[]
}

class RestApi {
   name: String
   logo: Image
   businessModels: BusinessModel[]
}

class Version {
    number: String // Semver
    description: String
    originalDocumentation: String
    oasDocumentation: Object //OASv3
    metadata: Object //WebAPI
    deprecated: Boolean = false
}

class User {
    username: String
    email: String
    password: String
}

class Explorer {
    description: String
    banned: Boolean = false
}

class Administrator {

}

class Contribution {
    blacklisted: Boolean = false
}

RestApi *-right- "0..*" Version
Provider o-right- "0..*" RestApi
User <|- - Administrator
User <|- - Explorer
Administrator - -> Contribution: Blacklist
Administrator -left-> Explorer: Ban
Explorer - -> Contribution: Add, edit, delete
Contribution <|- - Provider
Contribution <|- - RestApi
Contribution <|- - Version
@enduml

PlantUML version 1.2019.09(Mon Aug 26 18:19:51 CEST 2019)
(GPL source distribution)
Java Runtime: OpenJDK Runtime Environment
JVM: OpenJDK 64-Bit Server VM
Java Version: 1.8.0_242-8u242-b08-0ubuntu3~18.04-b08
Operating System: Linux
OS Version: 5.3.0-42-generic
Default Encoding: UTF-8
Language: fr
Country: FR
--></g></svg>