<?xml version="1.0" encoding="UTF-8" standalone="no"?><svg xmlns="http://www.w3.org/2000/svg" xmlns:xlink="http://www.w3.org/1999/xlink" contentScriptType="application/ecmascript" contentStyleType="text/css" height="1102px" preserveAspectRatio="none" style="width:1147px;height:1102px;" version="1.1" viewBox="0 0 1147 1102" width="1147px" zoomAndPan="magnify"><defs><filter height="300%" id="f1je9aa5nk5c5d" width="300%" x="-1" y="-1"><feGaussianBlur result="blurOut" stdDeviation="2.0"/><feColorMatrix in="blurOut" result="blurOut2" type="matrix" values="0 0 0 0 0 0 0 0 0 0 0 0 0 0 0 0 0 0 .4 0"/><feOffset dx="4.0" dy="4.0" in="blurOut2" result="blurOut3"/><feBlend in="SourceGraphic" in2="blurOut3" mode="normal"/></filter></defs><g><ellipse cx="452.5143" cy="723.7029" fill="#FEFECE" filter="url(#f1je9aa5nk5c5d)" rx="61.5143" ry="14.7029" style="stroke: #A80036; stroke-width: 1.5;"/><text fill="#000000" font-family="sans-serif" font-size="14" lengthAdjust="spacingAndGlyphs" textLength="84" x="410.5143" y="728.3513">Add RestAPI</text><ellipse cx="736.4996" cy="770.5999" fill="#FEFECE" filter="url(#f1je9aa5nk5c5d)" rx="90.9996" ry="20.5999" style="stroke: #A80036; stroke-width: 1.5;"/><text fill="#000000" font-family="sans-serif" font-size="14" lengthAdjust="spacingAndGlyphs" textLength="156" x="658.4996" y="775.2484">Add version to RestAPI</text><ellipse cx="1041.6001" cy="647.42" fill="#FEFECE" filter="url(#f1je9aa5nk5c5d)" rx="62.6001" ry="14.92" style="stroke: #A80036; stroke-width: 1.5;"/><text fill="#000000" font-family="sans-serif" font-size="14" lengthAdjust="spacingAndGlyphs" textLength="87" x="998.1001" y="652.0685">Add provider</text><ellipse cx="452.6565" cy="792.6313" fill="#FEFECE" filter="url(#f1je9aa5nk5c5d)" rx="61.1565" ry="14.6313" style="stroke: #A80036; stroke-width: 1.5;"/><text fill="#000000" font-family="sans-serif" font-size="14" lengthAdjust="spacingAndGlyphs" textLength="83" x="411.1565" y="797.2797">Edit RestAPI</text><ellipse cx="452.5685" cy="920.5236" fill="#FEFECE" filter="url(#f1je9aa5nk5c5d)" rx="59.5685" ry="14.5236" style="stroke: #A80036; stroke-width: 1.5;"/><text fill="#000000" font-family="sans-serif" font-size="14" lengthAdjust="spacingAndGlyphs" textLength="80" x="412.5685" y="925.1721">Edit version</text><ellipse cx="736.7133" cy="920.3427" fill="#FEFECE" filter="url(#f1je9aa5nk5c5d)" rx="79.7133" ry="18.3427" style="stroke: #A80036; stroke-width: 1.5;"/><text fill="#000000" font-family="sans-serif" font-size="14" lengthAdjust="spacingAndGlyphs" textLength="130" x="671.7133" y="924.9911">Depreciate version</text><ellipse cx="452.7362" cy="1054.3472" fill="#FEFECE" filter="url(#f1je9aa5nk5c5d)" rx="62.2362" ry="14.8472" style="stroke: #A80036; stroke-width: 1.5;"/><text fill="#000000" font-family="sans-serif" font-size="14" lengthAdjust="spacingAndGlyphs" textLength="86" x="409.7362" y="1058.9957">Edit provider</text><ellipse cx="452.7046" cy="856.5236" fill="#FEFECE" filter="url(#f1je9aa5nk5c5d)" rx="53.2046" ry="14.5236" style="stroke: #A80036; stroke-width: 1.5;"/><text fill="#000000" font-family="sans-serif" font-size="14" lengthAdjust="spacingAndGlyphs" textLength="71" x="417.2046" y="861.1721">Delete API</text><ellipse cx="736.3518" cy="846.5704" fill="#FEFECE" filter="url(#f1je9aa5nk5c5d)" rx="88.3518" ry="20.0704" style="stroke: #A80036; stroke-width: 1.5;"/><text fill="#000000" font-family="sans-serif" font-size="14" lengthAdjust="spacingAndGlyphs" textLength="150" x="661.3518" y="851.2188">Delete versions of API</text><ellipse cx="144.598" cy="402.5236" fill="#FEFECE" filter="url(#f1je9aa5nk5c5d)" rx="42.598" ry="14.5236" style="stroke: #A80036; stroke-width: 1.5;"/><text fill="#000000" font-family="sans-serif" font-size="14" lengthAdjust="spacingAndGlyphs" textLength="56" x="116.598" y="407.1721">List APIs</text><ellipse cx="1041.4883" cy="441.5977" fill="#FEFECE" filter="url(#f1je9aa5nk5c5d)" rx="80.9883" ry="18.5977" style="stroke: #A80036; stroke-width: 1.5;"/><text fill="#000000" font-family="sans-serif" font-size="14" lengthAdjust="spacingAndGlyphs" textLength="133" x="974.9883" y="446.2461">List APIs of provider</text><ellipse cx="452.7002" cy="474.34" fill="#FEFECE" filter="url(#f1je9aa5nk5c5d)" rx="74.7002" ry="17.34" style="stroke: #A80036; stroke-width: 1.5;"/><text fill="#000000" font-family="sans-serif" font-size="14" lengthAdjust="spacingAndGlyphs" textLength="118" x="393.7002" y="478.9885">Check API details</text><ellipse cx="736.4465" cy="548.5893" fill="#FEFECE" filter="url(#f1je9aa5nk5c5d)" rx="78.4465" ry="18.0893" style="stroke: #A80036; stroke-width: 1.5;"/><text fill="#000000" font-family="sans-serif" font-size="14" lengthAdjust="spacingAndGlyphs" textLength="127" x="672.9465" y="553.2377">List versions of API</text><ellipse cx="1041.5368" cy="548.3074" fill="#FEFECE" filter="url(#f1je9aa5nk5c5d)" rx="87.0368" ry="19.8074" style="stroke: #A80036; stroke-width: 1.5;"/><text fill="#000000" font-family="sans-serif" font-size="14" lengthAdjust="spacingAndGlyphs" textLength="147" x="968.0368" y="552.9558">Check version details</text><ellipse cx="284.0752" cy="323.715" fill="#FEFECE" filter="url(#f1je9aa5nk5c5d)" rx="64.0752" ry="15.215" style="stroke: #A80036; stroke-width: 1.5;"/><text fill="#000000" font-family="sans-serif" font-size="14" lengthAdjust="spacingAndGlyphs" textLength="91" x="238.5752" y="328.3635">List providers</text><ellipse cx="736.6728" cy="474.3346" fill="#FEFECE" filter="url(#f1je9aa5nk5c5d)" rx="89.6728" ry="20.3346" style="stroke: #A80036; stroke-width: 1.5;"/><text fill="#000000" font-family="sans-serif" font-size="14" lengthAdjust="spacingAndGlyphs" textLength="153" x="660.1728" y="478.983">Check provider details</text><ellipse cx="452.7036" cy="989.6407" fill="#FEFECE" filter="url(#f1je9aa5nk5c5d)" rx="63.7036" ry="15.1407" style="stroke: #A80036; stroke-width: 1.5;"/><text fill="#000000" font-family="sans-serif" font-size="14" lengthAdjust="spacingAndGlyphs" textLength="90" x="407.7036" y="994.2892">Check profile</text><ellipse cx="736.5998" cy="993.72" fill="#FEFECE" filter="url(#f1je9aa5nk5c5d)" rx="86.5998" ry="19.72" style="stroke: #A80036; stroke-width: 1.5;"/><text fill="#000000" font-family="sans-serif" font-size="14" lengthAdjust="spacingAndGlyphs" textLength="146" x="663.5998" y="998.3684">Modify its own details</text><ellipse cx="736.3591" cy="1069.6718" fill="#FEFECE" filter="url(#f1je9aa5nk5c5d)" rx="96.3591" ry="21.6718" style="stroke: #A80036; stroke-width: 1.5;"/><text fill="#000000" font-family="sans-serif" font-size="14" lengthAdjust="spacingAndGlyphs" textLength="168" x="652.3591" y="1074.3203">List contributions history</text><ellipse cx="736.6693" cy="693.6339" fill="#FEFECE" filter="url(#f1je9aa5nk5c5d)" rx="93.6693" ry="21.1339" style="stroke: #A80036; stroke-width: 1.5;"/><text fill="#000000" font-family="sans-serif" font-size="14" lengthAdjust="spacingAndGlyphs" textLength="162" x="655.6693" y="698.2823">Link provider to RestAPI</text><!--entity User--><ellipse cx="22" cy="324" fill="#FEFECE" filter="url(#f1je9aa5nk5c5d)" rx="8" ry="8" style="stroke: #A80036; stroke-width: 2.0;"/><path d="M22,332 L22,359 M9,340 L35,340 M22,359 L9,374 M22,359 L35,374 " fill="none" filter="url(#f1je9aa5nk5c5d)" style="stroke: #A80036; stroke-width: 2.0;"/><text fill="#000000" font-family="sans-serif" font-size="14" lengthAdjust="spacingAndGlyphs" textLength="32" x="6" y="393.9951">User</text><!--entity Administrator--><ellipse cx="144.5" cy="208" fill="#FEFECE" filter="url(#f1je9aa5nk5c5d)" rx="8" ry="8" style="stroke: #A80036; stroke-width: 2.0;"/><path d="M144.5,216 L144.5,243 M131.5,224 L157.5,224 M144.5,243 L131.5,258 M144.5,243 L157.5,258 " fill="none" filter="url(#f1je9aa5nk5c5d)" style="stroke: #A80036; stroke-width: 2.0;"/><text fill="#000000" font-family="sans-serif" font-size="14" lengthAdjust="spacingAndGlyphs" textLength="91" x="99" y="277.9951">Administrator</text><!--entity Contributor--><ellipse cx="144.5" cy="787" fill="#FEFECE" filter="url(#f1je9aa5nk5c5d)" rx="8" ry="8" style="stroke: #A80036; stroke-width: 2.0;"/><path d="M144.5,795 L144.5,822 M131.5,803 L157.5,803 M144.5,822 L131.5,837 M144.5,822 L157.5,837 " fill="none" filter="url(#f1je9aa5nk5c5d)" style="stroke: #A80036; stroke-width: 2.0;"/><text fill="#000000" font-family="sans-serif" font-size="14" lengthAdjust="spacingAndGlyphs" textLength="78" x="105.5" y="856.9951">Contributor</text><ellipse cx="452.669" cy="243.5236" fill="#FEFECE" filter="url(#f1je9aa5nk5c5d)" rx="49.669" ry="14.5236" style="stroke: #A80036; stroke-width: 1.5;"/><text fill="#000000" font-family="sans-serif" font-size="14" lengthAdjust="spacingAndGlyphs" textLength="66" x="419.669" y="248.1721">List users</text><ellipse cx="736.6068" cy="266.4214" fill="#FEFECE" filter="url(#f1je9aa5nk5c5d)" rx="77.6068" ry="17.9214" style="stroke: #A80036; stroke-width: 1.5;"/><text fill="#000000" font-family="sans-serif" font-size="14" lengthAdjust="spacingAndGlyphs" textLength="125" x="674.1068" y="271.0698">Check profile user</text><ellipse cx="1041.4604" cy="334.4921" fill="#FEFECE" filter="url(#f1je9aa5nk5c5d)" rx="95.4604" ry="21.4921" style="stroke: #A80036; stroke-width: 1.5;"/><text fill="#000000" font-family="sans-serif" font-size="14" lengthAdjust="spacingAndGlyphs" textLength="166" x="958.4604" y="339.1405">Modify details of an user</text><ellipse cx="1041.7471" cy="261.4494" fill="#FEFECE" filter="url(#f1je9aa5nk5c5d)" rx="70.2471" ry="16.4494" style="stroke: #A80036; stroke-width: 1.5;"/><text fill="#000000" font-family="sans-serif" font-size="14" lengthAdjust="spacingAndGlyphs" textLength="107" x="988.2471" y="266.0979">Ban contributor</text><ellipse cx="452.598" cy="139.5236" fill="#FEFECE" filter="url(#f1je9aa5nk5c5d)" rx="42.598" ry="14.5236" style="stroke: #A80036; stroke-width: 1.5;"/><text fill="#000000" font-family="sans-serif" font-size="14" lengthAdjust="spacingAndGlyphs" textLength="56" x="424.598" y="144.1721">Blacklist</text><ellipse cx="736.6576" cy="111.4315" fill="#FEFECE" filter="url(#f1je9aa5nk5c5d)" rx="72.6576" ry="16.9315" style="stroke: #A80036; stroke-width: 1.5;"/><text fill="#000000" font-family="sans-serif" font-size="14" lengthAdjust="spacingAndGlyphs" textLength="113" x="680.1576" y="116.0799">Blacklist RestAPI</text><ellipse cx="736.4465" cy="196.6893" fill="#FEFECE" filter="url(#f1je9aa5nk5c5d)" rx="71.4465" ry="16.6893" style="stroke: #A80036; stroke-width: 1.5;"/><text fill="#000000" font-family="sans-serif" font-size="14" lengthAdjust="spacingAndGlyphs" textLength="110" x="681.4465" y="201.3377">Blacklist version</text><ellipse cx="736.3797" cy="25.6759" fill="#FEFECE" filter="url(#f1je9aa5nk5c5d)" rx="73.8797" ry="17.1759" style="stroke: #A80036; stroke-width: 1.5;"/><text fill="#000000" font-family="sans-serif" font-size="14" lengthAdjust="spacingAndGlyphs" textLength="116" x="678.3797" y="30.3244">Blacklist provider</text><!--reverse link User to Administrator--><path d="M52.6642,323.6298 C57.7344,318.5167 62.9759,313.3234 68,308.5 C77.8055,299.0861 88.5313,289.1804 98.7668,279.9046 " fill="none" id="User&lt;-Administrator" style="stroke: #A80036; stroke-width: 1.0;"/><polygon fill="none" points="57.3392,328.8616,38.3568,338.2782,47.3238,319.0793,57.3392,328.8616" style="stroke: #A80036; stroke-width: 1.0;"/><!--reverse link User to Contributor--><path d="M38.272,417.0016 C63.5913,512.6982 111.7577,694.7476 133.4381,776.6905 " fill="none" id="User&lt;-Contributor" style="stroke: #A80036; stroke-width: 1.0;"/><polygon fill="none" points="31.4356,418.5299,33.0871,397.4048,44.9699,414.949,31.4356,418.5299" style="stroke: #A80036; stroke-width: 1.0;"/><!--link Contributor to addA--><path d="M183.7797,797.3023 C195.2416,791.6543 207.9337,785.9055 220,781.5 C279.7617,759.6805 351.0922,743.2322 398.8434,733.5242 " fill="none" id="Contributor-&gt;addA" style="stroke: #A80036; stroke-width: 1.0;"/><polygon fill="#A80036" points="403.9675,732.4899,394.354,730.3497,399.0663,733.4792,395.9369,738.1915,403.9675,732.4899" style="stroke: #A80036; stroke-width: 1.0;"/><!--link addA to addV--><path d="M502.9463,731.8485 C545.9409,738.9638 608.4564,749.3097 657.9914,757.5074 " fill="none" id="addA-&gt;addV" style="stroke: #A80036; stroke-width: 1.0; stroke-dasharray: 7.0,7.0;"/><polygon fill="#A80036" points="663.0477,758.3442,654.8216,752.9283,658.1148,757.5278,653.5153,760.8209,663.0477,758.3442" style="stroke: #A80036; stroke-width: 1.0;"/><text fill="#000000" font-family="sans-serif" font-size="13" lengthAdjust="spacingAndGlyphs" textLength="45" x="561" y="737.5669">include</text><!--link addA to lpta--><path d="M499.9475,714.2556 C517.7775,711.0646 538.2629,707.7339 557,705.5 C583.6034,702.3282 612.5325,699.9347 639.2416,698.154 " fill="none" id="addA-&gt;lpta" style="stroke: #A80036; stroke-width: 1.0; stroke-dasharray: 7.0,7.0;"/><polygon fill="#A80036" points="644.5525,697.806,635.3102,694.4032,639.5632,698.133,635.8334,702.386,644.5525,697.806" style="stroke: #A80036; stroke-width: 1.0;"/><text fill="#000000" font-family="sans-serif" font-size="13" lengthAdjust="spacingAndGlyphs" textLength="45" x="561" y="697.5669">include</text><!--reverse link lpta to addP--><path d="M819.4147,680.9948 C873.2342,672.8778 941.7725,662.5409 988.3771,655.512 " fill="none" id="lpta&lt;-addP" style="stroke: #A80036; stroke-width: 1.0; stroke-dasharray: 7.0,7.0;"/><polygon fill="#A80036" points="814.2535,681.7732,823.7494,684.3862,819.1976,681.0275,822.5563,676.4756,814.2535,681.7732" style="stroke: #A80036; stroke-width: 1.0;"/><text fill="#000000" font-family="sans-serif" font-size="13" lengthAdjust="spacingAndGlyphs" textLength="51" x="864" y="664.5669">extends</text><!--link Contributor to addP--><path d="M175.4669,776.9914 C187.9255,762.7285 203.3029,747.7812 220,737.5 C282.2783,699.1523 306.4966,706.8751 378,691.5 C589.7683,645.9644 646.4571,648.8375 863,643.5 C899.915,642.5901 941.1265,643.3932 974.6423,644.512 " fill="none" id="Contributor-&gt;addP" style="stroke: #A80036; stroke-width: 1.0;"/><polygon fill="#A80036" points="979.9535,644.6941,971.0959,640.3879,974.9564,644.5227,970.8216,648.3832,979.9535,644.6941" style="stroke: #A80036; stroke-width: 1.0;"/><!--link Contributor to editA--><path d="M183.5084,815.2071 C235.4655,810.8211 327.9952,803.0101 389.8071,797.7923 " fill="none" id="Contributor-&gt;editA" style="stroke: #A80036; stroke-width: 1.0;"/><polygon fill="#A80036" points="394.9458,797.3585,385.6412,794.1297,389.9635,797.7791,386.3142,802.1014,394.9458,797.3585" style="stroke: #A80036; stroke-width: 1.0;"/><!--reverse link editA to delV--><path d="M520.2298,805.3782 C565.1335,813.9162 623.8267,825.0762 668.7371,833.6155 " fill="none" id="editA&lt;-delV" style="stroke: #A80036; stroke-width: 1.0;"/><polygon fill="none" points="518.696,812.2121,500.3556,801.5993,521.3112,798.4585,518.696,812.2121" style="stroke: #A80036; stroke-width: 1.0;"/><!--reverse link editA to addV--><path d="M530.718,786.4409 C567.8407,783.5652 612.3045,780.1208 650.3873,777.1707 " fill="none" id="editA&lt;-addV" style="stroke: #A80036; stroke-width: 1.0;"/><polygon fill="none" points="531.1379,793.4292,510.657,787.9949,530.0565,779.471,531.1379,793.4292" style="stroke: #A80036; stroke-width: 1.0;"/><!--link Contributor to editV--><path d="M183.7023,836.73 C195.2728,841.8114 208.0416,847.1311 220,851.5 C283.5323,874.7112 358.8841,895.9625 406.203,908.5735 " fill="none" id="Contributor-&gt;editV" style="stroke: #A80036; stroke-width: 1.0;"/><polygon fill="#A80036" points="411.262,909.9172,403.5906,903.7406,406.4296,908.6335,401.5367,911.4724,411.262,909.9172" style="stroke: #A80036; stroke-width: 1.0;"/><!--reverse link editV to deprV--><path d="M532.189,920.5 C571.1375,920.5 617.8876,920.5 656.8331,920.5 " fill="none" id="editV&lt;-deprV" style="stroke: #A80036; stroke-width: 1.0;"/><polygon fill="none" points="532.0357,927.4999,512.0357,920.5,532.0357,913.4999,532.0357,927.4999" style="stroke: #A80036; stroke-width: 1.0;"/><!--link Contributor to editP--><path d="M155.8573,860.0048 C167.0556,893.7227 187.3137,940.3177 220,969.5 C269.1271,1013.3606 342.746,1035.1684 393.9337,1045.609 " fill="none" id="Contributor-&gt;editP" style="stroke: #A80036; stroke-width: 1.0;"/><polygon fill="#A80036" points="399.1263,1046.6449,391.0829,1040.9613,394.2229,1045.6666,389.5176,1048.8067,399.1263,1046.6449" style="stroke: #A80036; stroke-width: 1.0;"/><!--link Contributor to delA--><path d="M183.5084,823.3127 C238.0634,830.0435 337.3496,842.2931 398.8396,849.8796 " fill="none" id="Contributor-&gt;delA" style="stroke: #A80036; stroke-width: 1.0;"/><polygon fill="#A80036" points="403.9341,850.5081,395.4917,845.4361,398.9717,849.8958,394.512,853.3759,403.9341,850.5081" style="stroke: #A80036; stroke-width: 1.0;"/><!--link delA to delV--><path d="M502.1445,861.6535 C519.4795,863.2198 539.0802,864.7298 557,865.5 C580.5338,866.5115 586.5099,867.2542 610,865.5 C626.7587,864.2485 644.6628,862.0767 661.5709,859.6381 " fill="none" id="delA-&gt;delV" style="stroke: #A80036; stroke-width: 1.0; stroke-dasharray: 7.0,7.0;"/><polygon fill="#A80036" points="666.784,858.8734,657.2987,856.2221,661.8369,859.5991,658.4599,864.1373,666.784,858.8734" style="stroke: #A80036; stroke-width: 1.0;"/><text fill="#000000" font-family="sans-serif" font-size="13" lengthAdjust="spacingAndGlyphs" textLength="45" x="561" y="861.5669">include</text><!--link Administrator to List users--><path d="M190.2781,240.0945 C245.585,240.8128 338.5476,242.0201 397.6385,242.7875 " fill="none" id="Administrator-&gt;List users" style="stroke: #A80036; stroke-width: 1.0;"/><polygon fill="#A80036" points="402.8942,242.8558,393.947,238.7391,397.8946,242.7908,393.843,246.7385,402.8942,242.8558" style="stroke: #A80036; stroke-width: 1.0;"/><!--reverse link List users to Check profile user--><path d="M505.4005,247.7842 C549.8029,251.3802 613.7082,256.5556 663.0683,260.5531 " fill="none" id="List users&lt;-Check profile user" style="stroke: #A80036; stroke-width: 1.0; stroke-dasharray: 7.0,7.0;"/><polygon fill="#A80036" points="500.3556,247.3756,509.0032,252.0892,505.3393,247.7793,509.6492,244.1153,500.3556,247.3756" style="stroke: #A80036; stroke-width: 1.0;"/><text fill="#000000" font-family="sans-serif" font-size="13" lengthAdjust="spacingAndGlyphs" textLength="51" x="558" y="248.5669">extends</text><!--reverse link Check profile user to Modify details of an user--><path d="M797.6001,280.1223 C848.4198,291.4526 920.6982,307.5671 973.3754,319.3116 " fill="none" id="Check profile user&lt;-Modify details of an user" style="stroke: #A80036; stroke-width: 1.0; stroke-dasharray: 7.0,7.0;"/><polygon fill="#A80036" points="792.4417,278.9722,800.3555,284.835,797.3219,280.0603,802.0965,277.0267,792.4417,278.9722" style="stroke: #A80036; stroke-width: 1.0;"/><text fill="#000000" font-family="sans-serif" font-size="13" lengthAdjust="spacingAndGlyphs" textLength="51" x="864" y="292.5669">extends</text><!--reverse link Check profile user to Ban contributor--><path d="M819.0263,265.1471 C866.7373,264.365 926.1155,263.3915 971.5246,262.6471 " fill="none" id="Check profile user&lt;-Ban contributor" style="stroke: #A80036; stroke-width: 1.0; stroke-dasharray: 7.0,7.0;"/><polygon fill="#A80036" points="813.8587,265.2318,822.9231,269.0837,818.858,265.1498,822.7919,261.0847,813.8587,265.2318" style="stroke: #A80036; stroke-width: 1.0;"/><text fill="#000000" font-family="sans-serif" font-size="13" lengthAdjust="spacingAndGlyphs" textLength="51" x="864" y="260.5669">extends</text><!--link Administrator to Blacklist--><path d="M190.2781,224.637 C251.929,204.6205 360.3697,169.4124 416.5278,151.1793 " fill="none" id="Administrator-&gt;Blacklist" style="stroke: #A80036; stroke-width: 1.0;"/><polygon fill="#A80036" points="421.4669,149.5757,411.6715,148.5506,416.7113,151.1198,414.1421,156.1596,421.4669,149.5757" style="stroke: #A80036; stroke-width: 1.0;"/><!--reverse link Blacklist to Blacklist RestAPI--><path d="M513.5684,133.4792 C559.4275,128.9578 622.1929,122.7697 669.4422,118.1113 " fill="none" id="Blacklist&lt;-Blacklist RestAPI" style="stroke: #A80036; stroke-width: 1.0;"/><polygon fill="none" points="514.0831,140.4623,493.4927,135.4585,512.7094,126.5298,514.0831,140.4623" style="stroke: #A80036; stroke-width: 1.0;"/><!--reverse link Blacklist to Blacklist version--><path d="M509.0897,150.8578 C559.5317,160.9817 632.8534,175.6977 682.4941,185.6608 " fill="none" id="Blacklist&lt;-Blacklist version" style="stroke: #A80036; stroke-width: 1.0;"/><polygon fill="none" points="507.5684,157.6921,489.3369,146.8933,510.3233,143.9659,507.5684,157.6921" style="stroke: #A80036; stroke-width: 1.0;"/><!--reverse link Blacklist to Blacklist provider--><path d="M499.058,120.8112 C555.03,98.3436 647.8376,61.0898 699.2808,40.4401 " fill="none" id="Blacklist&lt;-Blacklist provider" style="stroke: #A80036; stroke-width: 1.0;"/><polygon fill="none" points="501.4164,127.4074,480.2482,128.3616,496.2011,114.415,501.4164,127.4074" style="stroke: #A80036; stroke-width: 1.0;"/><!--link Blacklist provider to Blacklist RestAPI--><path d="M736.5,42.584 C736.5,55.8765 736.5,74.4391 736.5,88.9508 " fill="none" id="Blacklist provider-&gt;Blacklist RestAPI" style="stroke: #A80036; stroke-width: 1.0; stroke-dasharray: 7.0,7.0;"/><polygon fill="#A80036" points="736.5,94.0966,740.5,85.0966,736.5,89.0966,732.5,85.0966,736.5,94.0966" style="stroke: #A80036; stroke-width: 1.0;"/><text fill="#000000" font-family="sans-serif" font-size="13" lengthAdjust="spacingAndGlyphs" textLength="45" x="702.5" y="73.0669">include</text><!--link Blacklist RestAPI to Blacklist version--><path d="M736.5,128.5493 C736.5,141.8028 736.5,160.2838 736.5,174.627 " fill="none" id="Blacklist RestAPI-&gt;Blacklist version" style="stroke: #A80036; stroke-width: 1.0; stroke-dasharray: 7.0,7.0;"/><polygon fill="#A80036" points="736.5,179.7067,740.5,170.7067,736.5,174.7067,732.5,170.7067,736.5,179.7067" style="stroke: #A80036; stroke-width: 1.0;"/><text fill="#000000" font-family="sans-serif" font-size="13" lengthAdjust="spacingAndGlyphs" textLength="45" x="702.5" y="158.8169">include</text><!--link User to getAs--><path d="M38.0147,361.6444 C56.421,368.7064 87.1413,380.493 110.8679,389.5963 " fill="none" id="User-&gt;getAs" style="stroke: #A80036; stroke-width: 1.0;"/><polygon fill="#A80036" points="115.8179,391.4954,108.8481,384.5369,111.1497,389.7043,105.9823,392.006,115.8179,391.4954" style="stroke: #A80036; stroke-width: 1.0;"/><!--reverse link getP to getAP--><path d="M822.4176,465.204 C868.3871,460.2302 924.4004,454.1698 968.282,449.4219 " fill="none" id="getP&lt;-getAP" style="stroke: #A80036; stroke-width: 1.0; stroke-dasharray: 7.0,7.0;"/><polygon fill="#A80036" points="817.4336,465.7432,826.8117,468.7518,822.4046,465.2053,825.9511,460.7983,817.4336,465.7432" style="stroke: #A80036; stroke-width: 1.0;"/><text fill="#000000" font-family="sans-serif" font-size="13" lengthAdjust="spacingAndGlyphs" textLength="51" x="864" y="452.5669">extends</text><!--reverse link getAs to getAP--><path d="M207.4302,403.9713 C339.0458,407.2454 652.9942,416.0854 916,431.5 C932.0376,432.44 949.2112,433.6645 965.5467,434.9327 " fill="none" id="getAs&lt;-getAP" style="stroke: #A80036; stroke-width: 1.0;"/><polygon fill="none" points="207.0073,410.9631,187.1845,403.476,207.3497,396.9673,207.0073,410.9631" style="stroke: #A80036; stroke-width: 1.0;"/><!--reverse link getAs to getA--><path d="M168.1022,418.2365 C182.5023,427.0787 201.6215,437.5109 220,443.5 C271.5916,460.3122 332.4664,468.0215 378.9828,471.5491 " fill="none" id="getAs&lt;-getA" style="stroke: #A80036; stroke-width: 1.0; stroke-dasharray: 7.0,7.0;"/><polygon fill="#A80036" points="163.7907,415.5501,169.3138,423.7046,168.0343,418.1943,173.5445,416.9148,163.7907,415.5501" style="stroke: #A80036; stroke-width: 1.0;"/><text fill="#000000" font-family="sans-serif" font-size="13" lengthAdjust="spacingAndGlyphs" textLength="51" x="258.5" y="439.5669">extends</text><!--reverse link getA to getVs--><path d="M507.4918,488.8288 C558.6437,502.1572 634.3069,521.8722 684.481,534.9458 " fill="none" id="getA&lt;-getVs" style="stroke: #A80036; stroke-width: 1.0; stroke-dasharray: 7.0,7.0;"/><polygon fill="#A80036" points="502.6198,487.5594,510.3203,493.6997,507.4582,488.8203,512.3376,485.9582,502.6198,487.5594" style="stroke: #A80036; stroke-width: 1.0;"/><text fill="#000000" font-family="sans-serif" font-size="13" lengthAdjust="spacingAndGlyphs" textLength="51" x="558" y="499.5669">extends</text><!--reverse link getA to getP--><path d="M532.3331,474.5 C568.0131,474.5 610.2174,474.5 646.9665,474.5 " fill="none" id="getA&lt;-getP" style="stroke: #A80036; stroke-width: 1.0; stroke-dasharray: 7.0,7.0;"/><polygon fill="#A80036" points="527.1177,474.5,536.1177,478.5,532.1177,474.5,536.1177,470.5,527.1177,474.5" style="stroke: #A80036; stroke-width: 1.0;"/><text fill="#000000" font-family="sans-serif" font-size="13" lengthAdjust="spacingAndGlyphs" textLength="51" x="558" y="470.5669">extends</text><!--reverse link getVs to getV--><path d="M820.0857,548.5 C861.7816,548.5 912.1813,548.5 954.356,548.5 " fill="none" id="getVs&lt;-getV" style="stroke: #A80036; stroke-width: 1.0; stroke-dasharray: 7.0,7.0;"/><polygon fill="#A80036" points="815.0451,548.5,824.0451,552.5,820.0451,548.5,824.0451,544.5,815.0451,548.5" style="stroke: #A80036; stroke-width: 1.0;"/><text fill="#000000" font-family="sans-serif" font-size="13" lengthAdjust="spacingAndGlyphs" textLength="51" x="864" y="544.5669">extends</text><!--link User to getPs--><path d="M38.3893,353.4983 C74.3475,349.1064 161.749,338.4314 221.9613,331.0772 " fill="none" id="User-&gt;getPs" style="stroke: #A80036; stroke-width: 1.0;"/><polygon fill="#A80036" points="226.9732,330.4651,217.5546,327.5859,222.0101,331.0714,218.5246,335.5269,226.9732,330.4651" style="stroke: #A80036; stroke-width: 1.0;"/><!--reverse link getPs to getP--><path d="M325.8863,337.4775 C409.2273,365.2886 595.5467,427.4636 685.703,457.549 " fill="none" id="getPs&lt;-getP" style="stroke: #A80036; stroke-width: 1.0; stroke-dasharray: 7.0,7.0;"/><polygon fill="#A80036" points="321.03,335.857,328.3011,342.5001,325.7729,337.4397,330.8334,334.9115,321.03,335.857" style="stroke: #A80036; stroke-width: 1.0;"/><text fill="#000000" font-family="sans-serif" font-size="13" lengthAdjust="spacingAndGlyphs" textLength="51" x="427" y="352.5669">extends</text><!--link Contributor to getU--><path d="M176.2295,860.2122 C188.6625,874.4485 203.8261,889.5268 220,900.5 C276.882,939.0916 352.8205,964.0826 402.185,977.4774 " fill="none" id="Contributor-&gt;getU" style="stroke: #A80036; stroke-width: 1.0;"/><polygon fill="#A80036" points="407.1751,978.8165,399.5195,972.6204,402.346,977.5205,397.4459,980.347,407.1751,978.8165" style="stroke: #A80036; stroke-width: 1.0;"/><!--reverse link getU to editU--><path d="M521.3898,990.4703 C560.1187,991.0158 608.8249,991.7018 650.0924,992.283 " fill="none" id="getU&lt;-editU" style="stroke: #A80036; stroke-width: 1.0; stroke-dasharray: 7.0,7.0;"/><polygon fill="#A80036" points="516.2351,990.3977,525.1779,994.5241,521.2346,990.4681,525.2906,986.5249,516.2351,990.3977" style="stroke: #A80036; stroke-width: 1.0;"/><text fill="#000000" font-family="sans-serif" font-size="13" lengthAdjust="spacingAndGlyphs" textLength="51" x="558" y="987.5669">extends</text><!--reverse link getU to getCH--><path d="M498.3778,1002.4233 C546.7764,1016.0567 623.255,1037.6 676.432,1052.5794 " fill="none" id="getU&lt;-getCH" style="stroke: #A80036; stroke-width: 1.0; stroke-dasharray: 7.0,7.0;"/><polygon fill="#A80036" points="493.4927,1001.0472,501.0708,1007.3378,498.3054,1002.403,503.2402,999.6376,493.4927,1001.0472" style="stroke: #A80036; stroke-width: 1.0;"/><text fill="#000000" font-family="sans-serif" font-size="13" lengthAdjust="spacingAndGlyphs" textLength="51" x="558" y="1015.5669">extends</text><!--
@startuml "DCU APIs Repositorio"
left to right direction
(Add RestAPI) as (addA)
(Add version to RestAPI) as (addV)
(Add provider) as (addP)
(Edit RestAPI) as (editA)
(Edit version) as (editV)
(Depreciate version) as (deprV)
(Edit provider) as (editP)
(Delete API) as (delA)
(Delete versions of API) as (delV)
(List APIs) as (getAs)
(List APIs of provider) as (getAP)
(Check API details) as (getA)
(List versions of API) as (getVs)
(Check version details) as (getV)
(List providers) as (getPs)
(Check provider details) as (getP)
(Check profile) as (getU)
(Modify its own details) as (editU)
(List contributions history) as (getCH)
(Link provider to RestAPI) as (lpta)

User <|- - Administrator
User <|- - Contributor
Contributor - -> (addA)
(addA) ..> (addV) : include
(addA) ..> (lpta) : include
(lpta) <.. (addP) : extends
Contributor - -> (addP)
Contributor - -> (editA)
(editA) <|- - (delV)
(editA) <|- - (addV)
Contributor - -> (editV)
(editV) <|- - (deprV)
Contributor - -> (editP)
Contributor - ->  (delA)
(delA) ..> (delV) : include
Administrator - -> (List users)
(List users) <.. (Check profile user) : extends
(Check profile user) <.. (Modify details of an user) : extends
(Check profile user) <.. (Ban contributor) : extends
Administrator - -> (Blacklist)
(Blacklist) <|- - (Blacklist RestAPI)
(Blacklist) <|- - (Blacklist version)
(Blacklist) <|- - (Blacklist provider)
(Blacklist provider) .> (Blacklist RestAPI) : include
(Blacklist RestAPI) .> (Blacklist version) : include

User - -> (getAs)
(getP) <.. (getAP) : extends
(getAs) <|- - (getAP)
(getAs) <.. (getA) : extends
(getA) <.. (getVs) : extends
(getA) <.. (getP) : extends
(getVs) <.. (getV) : extends
User - -> (getPs)
(getPs) <.. (getP) : extends
Contributor - -> (getU)
(getU) <.. (editU) : extends
(getU) <.. (getCH) : extends
@enduml

PlantUML version 1.2019.09(Mon Aug 26 18:19:51 CEST 2019)
(GPL source distribution)
Java Runtime: OpenJDK Runtime Environment
JVM: OpenJDK 64-Bit Server VM
Java Version: 11.0.6+10-post-Ubuntu-1ubuntu118.04.1
Operating System: Linux
OS Version: 5.3.0-45-generic
Default Encoding: UTF-8
Language: en
Country: US
--></g></svg>